<?xml version="1.0" encoding="UTF-8" standalone="no"?>
<!-- Created with Inkscape (http://www.inkscape.org/) -->

<svg
   version="1.1"
   id="svg1"
   width="746.42139"
   height="788.44019"
   viewBox="0 0 746.42138 788.44018"
   xml:space="preserve"
   xmlns="http://www.w3.org/2000/svg"
   xmlns:svg="http://www.w3.org/2000/svg"><defs
     id="defs1" /><g
     id="g1"
     transform="translate(-1776.8259,-647.02844)"><path
       style="fill:#000000"
       d="m 1951.0173,1425.0239 c -8.5029,-9.959 -14.775,-18.8467 -18.1803,-25.7619 l -1.5646,-3.1772 2.7265,3.3333 c 1.4996,1.8333 2.7398,3.8187 2.7561,4.412 0.016,0.5933 0.6321,0.7064 1.3684,0.2514 l 1.3386,-0.8274 -3.4384,-4.5079 c -1.8911,-2.4794 -4.6199,-7.3925 -6.0639,-10.9181 l -2.6254,-6.41 0.7233,4.6667 0.7234,4.6666 -1.3111,-2 c -0.7211,-1.1 -1.3202,-3.9688 -1.3315,-6.3751 l -0.02,-4.3752 -1.9756,-0.7581 -1.9755,-0.7581 1.262,-2.3581 c 0.6941,-1.2969 0.9205,-2.6995 0.5032,-3.1169 -3.7184,-3.7183 -4.5896,-24.4305 -0.9692,-23.0413 l 2.1557,0.8273 -0.8216,-7.0222 c -0.4519,-3.8623 -1.1632,-9.1223 -1.5808,-11.6889 l -0.7593,-4.6667 3.1802,-9.6667 c 1.7491,-5.3166 2.6854,-9.6666 2.0806,-9.6666 -0.6048,0 -1.1089,1.05 -1.1201,2.3333 l -0.02,2.3333 -1.2035,-1.9017 -1.2036,-1.9017 4.7921,-7.4316 c 2.6356,-4.0874 5.5988,-9.0185 6.5849,-10.958 0.9861,-1.9395 2.6805,-4.263 3.7653,-5.1633 l 1.9723,-1.6368 2,1.6598 2,1.6599 v -2.242 c 0,-1.2331 0.4786,-1.9461 1.0637,-1.5846 0.585,0.3616 1.935,0.1062 3,-0.5675 l 1.9363,-1.225 -1.8093,-0.02 c -0.9951,-0.011 -1.49,-0.8525 -1.0998,-1.8695 l 0.7096,-1.8491 -2.9003,0.7349 c -1.5951,0.4042 -4.281,1.6255 -5.9687,2.714 l -3.0684,1.979 -1.4419,-1.4419 c -0.7931,-0.793 -1.065,-2.4243 -0.6042,-3.625 l 0.8377,-2.1832 3.006,0.4318 c 1.6533,0.2374 3.606,-0.021 4.3393,-0.5736 0.7333,-0.553 2.8333,-2.1663 4.6667,-3.5851 l 3.3333,-2.5798 -2.18,-1.7531 c -1.1989,-0.9642 -2.475,-2.6531 -2.8356,-3.7531 l -0.6556,-2 -0.9756,3.6666 c -0.5366,2.0167 -1.3606,3.6575 -1.8311,3.6463 -1.9786,-0.047 -4.4709,-2.4444 -3.7516,-3.6083 1.1802,-1.9095 -3.4137,-1.5566 -6.4005,0.4918 -1.4465,0.9919 -4.3757,1.8036 -6.5093,1.8036 -2.1336,0 -5.9001,1.2489 -8.37,2.7754 l -4.4907,2.7754 v 4.0467 4.0467 l -3.3541,-0.6412 -3.354,-0.6412 -3.7746,4.299 c -2.076,2.3645 -5.7485,7.7491 -8.1611,11.9658 l -4.3865,7.6669 v 5.1866 5.1865 h -1.86 c -8.3176,0 1.1125,-23.5901 15.6548,-39.1619 l 9.5318,-10.2066 8.1852,-4.5227 c 10.6833,-5.9031 27.014,-11.1625 39.5185,-12.7273 l 10,-1.2513 -12.6667,0.5126 c -6.9666,0.2819 -14.6473,1.222 -17.068,2.0891 -2.4208,0.867 -4.7946,1.1833 -5.2751,0.7027 -0.4806,-0.4805 0.45,-1.2198 2.068,-1.643 1.618,-0.4231 2.9418,-1.2699 2.9418,-1.8819 0,-0.6119 -2.55,0.048 -5.6667,1.4671 -3.1166,1.4188 -5.493,3.2604 -5.2807,4.0925 l 0.3859,1.5129 -3.7193,-0.8649 -3.7192,-0.8649 1.6744,1.1239 1.6744,1.124 -5.6744,3.1466 c -7.9402,4.4031 -20.0262,13.8017 -24.3388,18.9269 l -3.6314,4.3157 -1.8521,-2.5329 c -1.02,-1.3949 -1.8521,-1.784 -1.8521,-0.866 0,0.9167 -0.5585,1.3216 -1.2412,0.8997 -0.6827,-0.4219 -1.6483,-0.1085 -2.1458,0.6965 l -0.9045,1.4636 3.1035,-0.4419 3.1034,-0.4418 0.3046,3.7821 0.3046,3.782 -1.8268,-0.701 -1.8268,-0.701 -1.3661,3.919 c -1.2662,3.6321 -3.9386,5.0408 -5.88,3.0994 -1.1802,-1.1802 3.1051,-7.2987 4.5057,-6.4331 0.6447,0.3984 0.7771,-0.3052 0.2942,-1.5635 l -0.878,-2.288 1.4678,0.9071 c 0.8073,0.499 1.7936,0.3801 2.1917,-0.2642 0.3982,-0.6442 -0.4365,-1.104 -1.8549,-1.0217 -2.4056,0.1395 -9.3514,7.9249 -9.3514,10.4818 0,0.6311 -1.2358,3.8601 -2.7461,7.1755 l -2.7462,6.0282 -3.2538,-2.1321 -3.2539,-2.132 v 3.9521 c 0,2.1736 -0.6643,4.3626 -1.4762,4.8644 l -1.4762,0.9123 0.71,-2.5003 c 0.3905,-1.3752 1.033,-4.6003 1.4277,-7.167 l 0.7178,-4.6667 -1.4262,4.6667 c -0.7844,2.5667 -1.6767,5.5025 -1.9829,6.5242 -0.3062,1.0216 -0.8363,1.5779 -1.178,1.2363 -0.3416,-0.3417 0.3248,-3.8776 1.4809,-7.8575 1.1562,-3.98 2.1135,-8.5824 2.1275,-10.2275 0.014,-1.6452 0.5617,-2.6597 1.2172,-2.2546 0.6554,0.405 1.1917,-0.4635 1.1917,-1.9302 0,-1.4666 0.541,-3.001 1.2021,-3.4096 0.6611,-0.4086 1.8529,-2.694 2.6483,-5.0786 l 1.4463,-4.3358 -2.0758,2.6666 c -1.1416,1.4667 -2.5719,2.5372 -3.1782,2.379 -0.6064,-0.1583 -0.7941,0.8917 -0.4171,2.3333 l 0.6854,2.6211 h -2.311 -2.311 l 0.9314,-3 c 0.5122,-1.65 1.0609,-3.915 1.2193,-5.0334 0.5174,-3.6529 9.275,-17.8318 14.7786,-23.9268 l 5.3817,-5.9603 -9.6537,8.6269 c -5.3096,4.7448 -9.6596,9.3655 -9.6667,10.2682 -0.01,0.9027 -1.4862,2.011 -3.287,2.463 l -3.274,0.8217 0.774,3.8703 0.7741,3.8704 h -2.1324 c -1.1729,0 -3.0734,1.8196 -4.2235,4.0436 l -2.091,4.0436 -1.5031,-0.929 -1.5032,-0.929 0.8514,2.2187 c 1.1253,2.9324 -0.2174,6.2187 -2.5409,6.2187 -2.6706,0 -2.4534,-0.8711 3.0637,-12.2888 l 4.9716,-10.2888 3.732,-0.8197 c 2.0526,-0.4508 3.4153,-1.3321 3.0282,-1.9585 -0.3871,-0.6263 0.4586,-3.2085 1.8795,-5.7382 l 2.5833,-4.5994 -2.7527,0.7199 -2.7527,0.7198 0.6936,-3.6283 0.6936,-3.6283 -3.8408,3.6797 -3.8408,3.6797 -1.5348,-1.5347 -1.5347,-1.5347 1.6537,-1.9925 c 0.9095,-1.0959 1.2636,-3.2213 0.787,-4.7232 l -0.8667,-2.7306 h 2.784 2.7841 l 9.2309,-9.1944 9.231,-9.1945 -2.5918,-2.3455 c -1.4255,-1.2901 -2.5918,-3.4526 -2.5918,-4.8056 v -2.46 h 4.6666 4.6667 v 2.802 2.8021 l 5.6667,-3.5312 c 7.9263,-4.9392 23.1437,-11.9594 30.6643,-14.1462 l 6.331,-1.8409 -0.601,-2.0429 c -0.3306,-1.1236 -0.9845,-3.653 -1.4533,-5.6208 l -0.8522,-3.5779 -1.8778,0.7205 c -1.0327,0.3963 -2.9277,0.2743 -4.211,-0.2712 -1.2834,-0.5455 -5.1314,-1.0596 -8.5511,-1.1426 l -6.2178,-0.1509 1.4078,1.6989 c 0.7742,0.9343 1.7321,1.3745 2.1286,0.978 0.3964,-0.3964 1.7906,1.5391 3.098,4.3011 4.7877,10.114 2.2516,11.1214 -6.1736,2.4525 -3.1553,-3.2466 -5.0001,-5.6201 -4.0996,-5.2745 l 1.6373,0.6283 -0.1987,-2.6984 c -0.1094,-1.484 -0.7073,-3.1605 -1.3287,-3.7254 -0.6214,-0.565 -0.6982,-0.2772 -0.1706,0.6395 1.6431,2.8553 -1.1265,1.822 -2.9522,-1.1014 l -1.7286,-2.768 -1.9719,1.6365 -1.9718,1.6365 -7.2814,-1.7468 -7.2814,-1.7468 -2.6225,2.3734 c -1.4424,1.3053 -3.5347,2.0233 -4.6497,1.5954 l -2.0272,-0.7779 0.7869,-2.0505 0.7868,-2.0504 -3.1427,0.018 c -1.7284,0.01 -4.5433,0.3932 -6.2553,0.8516 l -3.1127,0.8335 1.7794,1.1279 1.7793,1.1279 -2.3776,0.02 c -3.3517,0.029 -15.4095,6.3349 -18.7908,9.8273 -1.5574,1.6086 -5.1377,5.524 -7.9563,8.7008 l -5.1248,5.7761 -1.4693,-1.4694 -1.4694,-1.4694 4.2333,-6.0058 4.2333,-6.0059 h -1.8192 c -2.2881,0 -4.996,4.1529 -8.1618,12.5172 l -2.4668,6.5173 -0.8104,-2.3102 -0.8104,-2.3103 -1.4544,3.1922 c -0.8,1.7557 -2.5142,7.9555 -3.8094,13.7772 l -2.355,10.5851 -1.0351,-2.6509 -1.0351,-2.6509 -0.094,2.5555 c -0.052,1.4056 -0.4324,2.2169 -0.8464,1.8029 -0.4139,-0.4139 -0.3051,-3.0639 0.2418,-5.8888 l 0.9944,-5.1363 0.9587,3.3333 0.9586,3.3334 0.1329,-2.8368 c 0.1246,-2.6593 -3.7395,-7.5112 -3.9766,-4.9932 -0.06,0.6398 -0.8103,8.7936 -1.6667,18.1195 l -1.5571,16.9561 -1.74,-1.0801 -1.74,-1.0802 -0.1316,-12.5427 -0.1317,-12.5426 -1.0116,6.6666 c -0.5563,3.6667 -1.064,9.6167 -1.1283,13.2223 -0.064,3.6055 -0.5121,6.1602 -0.9953,5.677 -0.4832,-0.4832 -0.7745,-3.8157 -0.6475,-7.4055 l 0.231,-6.5271 -1.9765,-0.7584 c -1.087,-0.4172 -2.3884,-0.092 -2.8918,0.7226 -0.5217,0.8442 -0.3134,1.1091 0.4842,0.6161 0.7698,-0.4757 1.7557,0.063 2.1908,1.1966 l 0.7911,2.0616 -1.6514,-0.9919 c -0.9327,-0.5602 -0.781,0.099 0.3486,1.5138 l 2,2.5056 -2.4818,-0.9315 -2.4818,-0.9314 0.7233,1.8848 c 1.0506,2.738 -0.5237,3.7178 -2.893,1.8005 l -2.0453,-1.6551 1.0013,1.6667 1.0013,1.6667 h -1.9675 c -1.0822,0 -2.2702,0.75 -2.6401,1.6666 -0.3699,0.9167 -0.8164,-0.4333 -0.9922,-3 -0.5809,-8.4817 -0.6526,-21.9813 -0.1226,-23.1068 0.2867,-0.6088 0.66,-5.4099 0.8297,-10.6691 0.3103,-9.6153 5.2825,-28.8907 7.4526,-28.8907 0.6391,0 1.5702,-2.25 2.0693,-5 1.5245,-8.401 5.1961,-13.9945 15.4188,-23.4901 5.3871,-5.0038 9.7947,-9.5334 9.7947,-10.0658 0,-4.1774 18.6288,-12.1234 32.437,-13.8359 3.2765,-0.4063 6.6327,-1.7729 7.7656,-3.1619 1.0973,-1.3455 1.5579,-1.6036 1.0236,-0.5736 l -0.9716,1.8726 1.4384,-0.889 c 0.7912,-0.4889 1.729,0.1684 2.0841,1.4607 0.3551,1.2923 0.3521,-0.3504 -0.01,-3.6504 l -0.6524,-6 1.4206,2 c 1.5415,2.1702 1.6511,2.058 2.1079,-2.1587 l 0.306,-2.8253 -2.3399,0.6119 c -1.2869,0.3365 -3.6013,-0.063 -5.1429,-0.8882 l -2.803,-1.5001 v -4.078 -4.0779 l -2.6666,-0.6973 c -2.7382,-0.7161 -3.788,-4.3864 -1.2547,-4.3864 0.7766,0 1.0412,0.6 0.588,1.3334 -0.4532,0.7333 -0.1886,1.3333 0.588,1.3333 1.8145,0 1.8099,-1.7354 -0.01,-3.5548 -0.7819,-0.7819 -1.7179,-3.3019 -2.0801,-5.6 l -0.6585,-4.1785 h 1.4921 c 0.8206,0 1.1468,0.5585 0.7249,1.2412 -0.4219,0.6826 -0.1886,1.5987 0.5183,2.0356 0.707,0.4369 1.0269,-0.2716 0.711,-1.5745 -3.2534,-13.4175 -4.5348,-17.737 -5.8949,-19.8706 l -1.5926,-2.4984 0.7702,2.4499 c 0.4236,1.3474 1.1583,4.8773 1.6328,7.844 l 0.8625,5.3942 -1.7018,-0.5673 c -0.936,-0.312 -2.8943,-3.7639 -4.3517,-7.6708 l -2.6499,-7.1036 1.756,-1.0852 c 0.9657,-0.5969 2.1552,-0.8384 2.6432,-0.5368 0.4881,0.3016 -2.0776,-8.2532 -5.7014,-19.0108 l -6.5888,-19.5592 0.5803,-11.2176 c 0.3191,-6.1697 1.1826,-11.6044 1.9187,-12.0772 0.7361,-0.4728 1.7625,-2.2183 2.2808,-3.879 0.5183,-1.6606 1.3981,-2.7376 1.9552,-2.3934 0.557,0.3443 2.0445,-2.647 3.3054,-6.6473 2.3544,-7.46896 3.2196,-8.34336 5.751,-5.81196 l 1.4612,1.4612 0.9446,-5.591 0.9446,-5.591 3.5275,-2.8702 c 1.9402,-1.5786 6.0675,-5.4202 9.1718,-8.5369 3.1043,-3.1167 6.3243,-5.6667 7.1554,-5.6667 h 1.5112 l -0.6281,3.2861 -0.6282,3.286 3.797,-2.7037 c 2.0883,-1.487 4.3561,-2.3581 5.0394,-1.9357 0.6834,0.4223 2.8899,0.017 4.9033,-0.9 l 3.6607,-1.668 0.5534,1.6605 0.5535,1.6604 4.2191,-2.9605 c 2.3205,-1.6283 4.8758,-3.8211 5.6784,-4.8729 l 1.4593,-1.9124 6.1831,0.697 c 3.4008,0.3833 5.8586,0.1718 5.462,-0.4699 -2.6084,-4.2205 21.5547,1.7988 35.4145,8.8221 3.5708,1.8095 8.8379,4.098 11.7046,5.0857 l 5.2121,1.7957 6.8115,-4.9005 6.8115,-4.9005 10.0491,-1.719 10.049,-1.7189 2.0207,1.677 2.0207,1.6771 5.9284,-1.4928 c 3.2606,-0.821 7.2127,-1.4928 8.7824,-1.4928 h 2.854 l -0.5513,1.654 c -0.3032,0.9096 -2.9032,2.3635 -5.7778,3.2308 -8.7503,2.6402 -1.8145,1.9598 8.1337,-0.7979 5.1186,-1.4189 13.3383,-4.4669 18.2661,-6.7734 l 8.9596,-4.1937 0.8359,-4.4556 c 1.0297,-5.4885 -0.069,-10.8299 -3.3295,-16.1919 l -2.4853,-4.0867 -12.7187,-0.9336 -12.7187,-0.9336 -5.4181,1.4589 c -2.98,0.8024 -5.4181,1.9506 -5.4181,2.5514 0,1.0952 -11.6009,8.5749 -19.6005,12.6376 -6.9649,3.5372 -25.6493,0.3315 -34.0122,-5.8355 -4.3272,-3.191 -5.054,-3.2865 -5.054,-0.6641 0,2.5514 -2.8024,2.5362 -8.9892,-0.049 -4.9708,-2.077 -9.6775,-6.1617 -9.6775,-8.3987 0,-0.6742 -1.05,-2.0493 -2.3333,-3.0558 l -2.3333,-1.8299 1.8299,2.3333 c 2.4709,3.1506 0.7668,2.9399 -4.0685,-0.5032 l -3.9836,-2.8366 0.6672,-2.5515 0.6673,-2.5516 -2.3467,0.7448 c -5.3789,1.7072 -13.4323,-9.3253 -13.4323,-18.4012 v -4.6962 l 3.3333,-3.9614 c 1.8334,-2.1788 3.3334,-4.7904 3.3334,-5.8035 0,-1.0131 2.6943,-3.0265 5.9873,-4.4742 5.5737,-2.4503 7.7778,-4.6322 4.6793,-4.6322 -1.9491,0 -1.6335,-3.9658 0.3334,-4.1897 0.9166,-0.1044 3.8995,-0.3017 6.6285,-0.4384 l 4.9618,-0.2485 2.8016,-3.5617 c 1.5409,-1.9589 3.9227,-3.5617 5.2928,-3.5617 1.3702,0 2.8267,-0.5428 3.2368,-1.2064 0.4101,-0.6635 3.2955,-0.9276 6.4121,-0.5868 l 5.6664,0.6197 -8.4135,-4.0799 c -4.6274,-2.2439 -9.5039,-4.0799 -10.8367,-4.0799 -1.3328,0 -3.1815,-0.9135 -4.1082,-2.0301 -0.9266,-1.1165 -2.7294,-1.6985 -4.0062,-1.2933 -1.2768,0.4052 -5.7219,-0.5355 -9.8779,-2.0904 l -7.5565,-2.8273 -4.74,2.2493 -4.7401,2.2493 -3.5271,-0.8762 c -1.94,-0.4819 -5.3272,-1.2152 -7.5272,-1.6296 -2.2,-0.4144 -4.75,-1.3515 -5.6666,-2.0825 -0.9167,-0.731 -1.6667,-0.7945 -1.6667,-0.1413 0,0.6533 -1.65,2.2108 -3.6667,3.4611 -2.0166,1.2504 -2.8974,2.2894 -1.9571,2.3089 0.9402,0.019 3.9402,1.0043 6.6666,2.1885 7.5385,3.2743 12.0228,3.2047 18.9896,-0.2945 7.7179,-3.8765 8.7951,-3.9367 9.6831,-0.5413 0.7168,2.7412 6.9335,5.9297 9.0323,4.6326 0.6549,-0.4047 3.6045,-0.086 6.5548,0.7085 l 5.3641,1.4444 v 1.9486 1.9486 l -5,0.1413 c -8.5262,0.241 -12.7533,-0.3309 -18.0179,-2.4374 l -5.077,-2.0313 -2.3909,2.1637 c -1.315,1.1901 -4.5593,2.1637 -7.2097,2.1637 -2.6503,0 -7.0445,1.3133 -9.7648,2.9183 l -4.9461,2.9182 -6.4623,-0.098 c -3.5732,-0.054 -7.946,-1.0696 -9.7809,-2.2718 l -3.3185,-2.1744 -13.3943,-0.5204 -13.3943,-0.5205 -1.955,-1.6225 c -1.0752,-0.8924 -1.955,-2.7341 -1.955,-4.0926 v -2.4701 l -4.3333,0.7179 c -2.3834,0.3948 -5.3421,0.9128 -6.5749,1.1511 -1.2329,0.2384 -5.676,-0.6997 -9.8737,-2.0845 -4.1976,-1.3848 -9.0389,-2.5178 -10.7584,-2.5178 -1.7678,0 -3.1264,-0.7988 -3.1264,-1.8383 0,-2.0737 -4.9098,-4.2987 -12.3333,-5.5893 -5.5007,-0.9562 -6.7875,-4.0946 -2,-4.8776 1.65,-0.2699 5.583,0.2395 8.7399,1.1321 l 5.74,1.6229 -1.5699,-1.8916 c -0.8634,-1.0404 -2.6964,-1.8916 -4.0733,-1.8916 -1.3768,0 -2.5034,-0.6148 -2.5034,-1.3663 0,-2.0227 6.7824,-4.2439 11.0573,-3.6212 l 3.7239,0.5425 -0.6821,-1.7775 -0.682,-1.7775 h 2.7674 2.7675 l -0.7427,-1.9355 -0.7428,-1.9356 4.1383,-2.0644 c 2.276,-1.1355 6.5263,-2.0645 9.4449,-2.0645 h 5.3067 l 3.1402,-3.6544 3.1402,-3.6545 -2.3184,-0.9185 -2.3184,-0.9185 2,-0.1141 2,-0.1141 -2,-1.2925 -2,-1.2925 3.8222,-0.02 3.8222,-0.02 -0.6974,2.6667 c -0.3835,1.4667 -0.2235,2.6667 0.3557,2.6667 0.5791,0 1.3872,-1.2779 1.7956,-2.8399 l 0.7427,-2.8398 1.9933,0.7649 c 1.0964,0.4208 2.1822,0.2528 2.4129,-0.3732 0.2307,-0.626 2.3695,-1.4399 4.7528,-1.8088 l 4.3334,-0.6706 v 2.757 2.757 l 2.3333,-2.0327 c 1.2833,-1.1179 3.2333,-2.3635 4.3333,-2.768 l 2,-0.7354 -1.6666,-0.1053 c -0.9167,-0.058 -1.6667,-1.0052 -1.6667,-2.1052 v -2 l 3.6667,-0.1418 c 2.0166,-0.078 4.8666,-0.2279 6.3333,-0.3333 l 2.6667,-0.1916 -0.3838,-3.6667 -0.3838,-3.6666 7.0504,-0.2113 c 3.8778,-0.1162 8.2505,-0.1542 9.7172,-0.084 1.4666,0.07 1.9129,-0.1864 0.9917,-0.5693 -0.9213,-0.3828 -1.3179,-1.2739 -0.8813,-1.9802 l 0.7936,-1.2842 1.8813,1.5613 c 1.0347,0.8588 1.8813,2.5026 1.8813,3.6529 v 2.0916 l 1.8072,-2.4715 1.8072,-2.4714 2.3312,0.8945 c 1.2821,0.492 2.0307,1.6774 1.6636,2.6341 l -0.6676,1.7396 5.728,-0.3374 5.728,-0.3374 0.802,2.2532 c 0.4412,1.2393 1.1519,3.0037 1.5794,3.9209 l 0.7772,1.6676 -2.1114,-0.8103 c -1.1613,-0.4456 -2.1114,-0.1857 -2.1114,0.5775 0,1.2664 4.8302,1.0344 9,-0.4324 0.9434,-0.3319 1.6666,0.4825 1.6666,1.8768 v 2.463 l -3.9408,1.6324 -3.9408,1.6323 1.9694,3.0057 1.9695,3.0057 3.3244,-0.6355 c 1.8284,-0.3495 3.6509,-1.1638 4.0501,-1.8096 0.3991,-0.6458 2.8256,-1.1741 5.3923,-1.1741 2.5666,0 4.3214,-0.5586 3.8995,-1.2412 -0.4219,-0.6827 -0.1424,-1.6273 0.621,-2.0991 0.7635,-0.4719 1.3022,-0.3633 1.1972,0.2412 -0.476,2.7404 0.2728,4.4324 1.9616,4.4324 1.0102,0 2.6048,0.9254 3.5435,2.0565 l 1.7068,2.0565 1.3898,-1.3898 c 1.5123,-1.5123 14.1899,-1.9544 14.1899,-0.4948 0,0.4922 -0.9385,1.932 -2.0855,3.1994 l -2.0855,2.3044 2.4188,-0.1994 2.4188,-0.1995 -0.028,3.3334 -0.028,3.3333 5.8201,-0.4776 5.8201,-0.4775 -0.4718,2.4775 -0.4718,2.4776 -5.3204,0.8108 -5.3205,0.8108 10.6667,0.2829 10.6667,0.2829 -2.6667,1.0599 -2.6667,1.0599 2.6667,0.6918 2.6667,0.6917 -6,0.4107 c -3.3,0.226 -7.2331,0.431 -8.7402,0.4557 l -2.7402,0.045 0.073,2.6991 0.073,2.699 -2.8872,0.4113 c -2.9803,0.4245 -5.0244,3.5743 -3.7051,5.709 1.0083,1.6314 5.5632,1.5449 6.5954,-0.1252 1.1888,-1.9236 7.6101,-0.155 10.2107,2.8123 2.6563,3.031 5.1196,3.2841 5.1196,0.5259 0,-1.1 0.5407,-2 1.2016,-2 0.6609,0 2.4168,-2.0596 3.9021,-4.5769 l 2.7005,-4.577 5.0979,-1.4156 c 2.8038,-0.7786 6.6549,-1.4189 8.5579,-1.423 3.0657,-0.01 9.1692,-4.5995 7.754,-5.835 -2.0048,-1.7503 -6.8959,-3.5058 -9.7676,-3.5058 h -3.3956 l -0.8836,-3.5206 c -0.486,-1.9363 -0.3381,-5.0863 0.3287,-7 l 1.2123,-3.4794 8.1432,-3.1693 8.1433,-3.1693 -2.1641,-2.1663 -2.164,-2.1663 -5.305,0.5047 c -2.9178,0.2776 -6.6518,1.3872 -8.2977,2.4657 l -2.9927,1.9608 -7.0356,-0.9551 c -9.1587,-1.2433 -16.7734,-4.3236 -18.4548,-7.4652 l -1.3413,-2.5064 h -3.9418 -3.9418 l -1.5386,-2.4636 -1.5386,-2.4637 -5.9483,1.2687 -5.9484,1.2686 -4.8577,-2.0524 c -2.6717,-1.1289 -7.8577,-2.2958 -11.5243,-2.5933 -3.6667,-0.2974 -9.0667,-1.7041 -12,-3.126 l -5.3334,-2.5852 -6.4972,1.0985 c -7.504,1.2688 -7.4779,1.2825 -8.3749,-4.4093 l -0.6792,-4.3093 13.4877,0.6495 c 13.5217,0.6511 17.1498,-0.2271 12.101,-2.9291 -3.5265,-1.8874 -3.4597,-4.02 0.1259,-4.02 h 2.8299 l -1.6866,-2.0322 c -2.3096,-2.783 -0.6991,-3.9635 4.7649,-3.4927 l 4.5952,0.3959 v -2.1022 c 0,-1.1562 0.53,-2.1022 1.1778,-2.1022 0.6478,0 1.4829,-1.1665 1.8558,-2.5924 l 0.6779,-2.5924 -3.8557,-0.8468 c -2.1207,-0.4658 -3.8558,-1.6992 -3.8558,-2.741 v -1.894 h 5.801 c 6.4214,0 14.199,-2.2625 14.199,-4.1305 0,-0.6615 1.1646,-1.2029 2.588,-1.2029 1.4234,0 2.9344,-0.5604 3.3577,-1.2455 1.5814,-2.5588 22.5619,2.419 29.0452,6.8912 3.982,2.7468 6.6987,2.1676 5.4232,-1.1563 -0.4415,-1.1505 -0.01,-2.5837 0.966,-3.1849 l 1.7687,-1.0932 -4.9077,-0.9207 -4.9078,-0.9207 v -1.8516 -1.8516 h 7.9213 c 7.1865,0 11.7019,-1.6812 7.9101,-2.9451 l -1.5186,-0.5062 0.9627,-3.033 0.9626,-3.0331 1.9898,2.4254 1.9898,2.4253 -0.7336,-2.3333 -0.7337,-2.3333 h 2.3581 c 1.297,0 3.0782,0.72 3.9582,1.6 l 1.6,1.6 v -2.3454 c 0,-1.2899 0.5516,-2.0044 1.2258,-1.5877 0.6742,0.4167 2.1897,-0.2062 3.3676,-1.3842 1.1967,-1.1966 3.1563,-1.7889 4.4409,-1.3423 l 2.299,0.7995 -2.6601,-2.056 -2.6602,-2.0559 1.9298,-1.1927 c 2.0212,-1.2491 4.5062,-0.5072 3.5396,1.0568 -0.3086,0.4993 0.8816,0.9079 2.6449,0.9079 1.7633,0 3.206,-0.4629 3.206,-1.0286 0,-0.5657 1.4339,-1.6819 3.1863,-2.4804 l 3.1863,-1.4517 2.8443,2.8442 2.8442,2.8443 2.5485,-1.3639 c 1.4016,-0.7502 3.9879,-1.3639 5.7472,-1.3639 h 3.1988 v 2 2 h -3.3334 c -5.1238,0 -2.6733,1.2782 3.6109,1.8835 3.08,0.2967 6.5357,1.316 7.6794,2.2651 l 2.0794,1.7258 -2.4626,0.9691 -2.4626,0.9691 3.6667,0.094 3.6666,0.094 v -1.9888 -1.9888 l 4.2707,0.4676 c 4.6682,0.511 6.148,2.5957 3.8273,5.392 l -1.4875,1.7923 2.7715,0.7247 2.7715,0.7248 -1.71,2.7381 -1.71,2.7382 1.8289,1.6999 1.8288,1.7 -0.9409,-1.6667 c -0.5176,-0.9167 -0.4812,-2.4106 0.081,-3.3199 l 1.0217,-1.6532 0.8537,3.3199 0.8536,3.3199 1.7507,-3.6667 c 1.8673,-3.9112 5.3226,-4.9931 5.3226,-1.6667 0,2.5174 1.3663,2.5192 6.1809,0.01 2.1005,-1.0955 4.8691,-1.9955 6.1524,-2 3.5474,-0.013 2.7854,3.8275 -0.9453,4.7638 -1.8033,0.4526 -3.9631,1.6476 -4.7996,2.6555 l -1.5209,1.8326 7.1329,-0.6753 7.1329,-0.6753 2.4445,-3.2881 c 2.6898,-3.618 7.5555,-4.4475 7.5555,-1.2881 0,1.1 -0.6193,2 -1.3763,2 -0.757,0 -1.8511,1.2834 -2.4313,2.8519 l -1.055,2.852 2.9607,3.1946 2.9606,3.1946 6.6936,0.7928 6.6936,0.7927 0.6522,2.494 0.6522,2.494 h 2.8893 2.8893 l -0.5103,2.3334 c -0.2807,1.2833 -1.3747,2.1392 -2.4311,1.9018 l -1.9208,-0.4314 2.7377,2.5724 2.7377,2.5723 4.4795,-0.6574 4.4796,-0.6575 1.454,1.9885 c 0.8266,1.1304 4.9043,2.4185 9.4494,2.9848 4.3975,0.548 9.0804,1.5754 10.4066,2.2833 l 2.4112,1.287 -0.4112,4.2448 -0.4112,4.2447 -7.8625,-0.3628 -7.8624,-0.3628 -2.1376,1.8718 c -1.1756,1.0294 -3.4875,2.2831 -5.1375,2.786 -1.65,0.5028 -3,1.3737 -3,1.9354 0,0.5617 -1.8528,1.0213 -4.1173,1.0213 -2.2645,0 -4.5145,0.6131 -5,1.3623 -0.4855,0.7493 -3.0139,2.0567 -5.6188,2.9052 l -4.7361,1.5429 -11.2639,-2.1558 c -6.1951,-1.1856 -14.1139,-2.2941 -17.5972,-2.4633 l -6.3334,-0.3076 v 1.9318 1.9317 l -6.1488,-0.922 -6.1489,-0.9221 2.7348,2.9355 2.7349,2.9354 3.4414,-0.8637 c 4.0268,-1.0107 8.72,1.1075 8.72,3.9356 v 1.9742 l -3.6667,-0.1102 c -2.0167,-0.061 -6.2109,0.3081 -9.3206,0.8193 l -5.6539,0.9296 -1.8796,-1.5599 -1.8796,-1.5599 -6.1558,1.55 c -3.3857,0.8526 -6.481,2.0763 -6.8785,2.7194 -1.9762,3.1976 -12.5653,0.7314 -12.5653,-2.9264 0,-3.5387 4.0546,-5.2376 12.5003,-5.2376 4.0382,0 7.7131,-0.6 8.1663,-1.3333 0.4533,-0.7333 2.2533,-1.3333 4,-1.3333 1.7468,0 3.5873,-0.6656 4.0901,-1.4791 l 0.9141,-1.479 -5.8354,0.9098 c -3.2095,0.5004 -6.885,1.2062 -8.1677,1.5685 l -2.3323,0.6588 -1.2522,-3.2933 c -1.8964,-4.9882 -3.5637,-5.224 -3.486,-0.4932 l 0.069,4.2237 -2.6666,0.4962 c -1.4667,0.2729 -3.5965,1.3185 -4.7329,2.3235 -1.1364,1.0049 -4.5441,2.7015 -7.5727,3.77 -3.0286,1.0686 -7.0419,2.9488 -8.9184,4.1784 l -3.4119,2.2355 4.203,2.8568 c 17.644,11.9923 14.4187,26.7568 -6.9005,31.589 -13.2094,2.994 -24.3102,10.3289 -25.5837,16.9045 -1.1038,5.6991 -18.9706,10.5377 -25.0022,6.7708 l -2.5498,-1.5923 -3.4423,1.5684 c -1.8932,0.8626 -4.4877,3.8292 -5.7654,6.5923 -1.2778,2.7632 -2.7732,5.224 -3.3232,5.4685 -1.4667,0.6518 -1.2197,5.2624 0.3333,6.2222 0.7333,0.4532 1.3333,2.2123 1.3333,3.909 v 3.085 l 6.6105,0.6352 6.6104,0.6352 4.8675,3.7126 4.8674,3.7126 0.8555,-1.3079 c 0.4704,-0.7194 4.6594,-1.6961 9.3087,-2.1703 l 8.4534,-0.8623 11.5466,-5.4573 11.5467,-5.4573 10.9535,-1.8122 c 6.0245,-0.9967 14.7245,-3.391 19.3334,-5.3208 10.1173,-4.2363 16.2739,-5.894 22.0464,-5.9364 l 4.3334,-0.032 v 1.7581 c 0,0.967 -1.8588,2.6384 -4.1306,3.7143 l -4.1305,1.9562 7.1305,0.01 c 3.9569,0.01 9.0897,0.9924 11.5323,2.2176 4.2196,2.1166 8.2649,1.9368 8.2649,-0.3674 0,-0.6011 1.0375,-1.2928 2.3056,-1.537 1.268,-0.2442 -1.132,-1.6124 -5.3334,-3.0405 -8.0594,-2.7395 -10.2163,-6.0315 -3.9722,-6.0625 2.0167,-0.01 4.9449,-0.3613 6.5072,-0.7805 l 2.8405,-0.7623 3.4928,3.7669 3.4929,3.7668 v -2.3197 c 0,-1.2758 0.9,-2.3197 2,-2.3197 1.1,0 2,0.6735 2,1.4966 v 1.4966 l 2,-1.6599 c 2.2045,-1.8296 2.6786,-6.0898 0.8063,-7.2469 -0.6565,-0.4058 -1.5344,0.1504 -1.9509,1.2358 l -0.7573,1.9736 -6.3824,-0.8207 c -3.5103,-0.4514 -6.9055,-1.2961 -7.5449,-1.8771 -0.6393,-0.5809 -1.997,-0.736 -3.017,-0.3446 -1.0199,0.3914 -2.7205,-0.01 -3.7791,-0.8857 -1.0585,-0.8785 -2.4815,-1.2531 -3.1622,-0.8324 -0.6806,0.4207 -4.0069,0.8696 -7.3917,0.9976 -3.3848,0.1281 -6.1542,0.8012 -6.1542,1.4958 0,0.6947 -2.1,1.0179 -4.6666,0.7183 l -4.6667,-0.5449 v 2.2658 2.2657 l -5,-0.073 c -2.75,-0.04 -7.25,0.398 -10,0.9743 l -5,1.0478 v -2.0112 c 0,-1.1062 -0.8643,-2.7286 -1.9208,-3.6053 -1.0564,-0.8768 -1.7547,-2.3002 -1.5518,-3.1633 0.2029,-0.863 0.1172,-1.1192 -0.1904,-0.5692 -1.1022,1.971 -4.1733,0.9497 -5.0027,-1.6635 -0.8956,-2.8218 -3.424,-3.7386 -11.8979,-4.3144 -2.8767,-0.1955 -5.468,-1.0794 -5.7585,-1.9643 l -0.5283,-1.6089 10.4252,-0.3911 10.4252,-0.3911 -5.8961,-1.3549 c -3.2429,-0.7453 -6.1691,-2.1739 -6.5027,-3.1748 l -0.6066,-1.8199 7.6522,0.9561 7.6523,0.9561 -0.7886,-1.2759 c -0.9366,-1.5154 3.4788,-6.9534 5.6459,-6.9534 2.7972,0 1.5395,-2.477 -1.4761,-2.9072 -1.6425,-0.2344 -3.1865,-1.4761 -3.4311,-2.7594 l -0.4447,-2.3334 3.0977,0.02 c 1.7038,0.011 3.9105,0.5354 4.9039,1.1648 l 1.8061,1.1445 3.8606,-1.4572 c 2.1233,-0.8014 3.8605,-2.1756 3.8605,-3.0538 0,-2.2706 2.8563,-2.9613 6.1485,-1.4867 l 2.8152,1.2609 4.1186,-2.1298 c 5.5906,-2.891 6.5363,-2.741 11.7881,1.8702 4.7834,4.1998 6.5931,4.721 9.6566,2.7812 l 1.8604,-1.178 -4.1875,-4.4683 c -5.2254,-5.5757 -5.2762,-6.9289 -0.2322,-6.1886 l 3.9677,0.5823 -1.4112,-1.7003 c -0.7761,-0.9352 -1.0254,-2.9157 -0.554,-4.401 l 0.8572,-2.7007 2.9196,0.3033 2.9197,0.3034 -0.3333,-1.6667 c -0.418,-2.0895 0.3478,-2.0965 3.6516,-0.033 l 2.6155,1.6334 1.8888,-2.5831 1.8888,-2.5831 2.0244,1.6801 2.0243,1.6801 0.8926,-4.0638 0.8925,-4.0637 3.5607,0.1816 3.5608,0.1816 -3,0.5778 c -1.65,0.3178 -3,1.1715 -3,1.8971 0,0.7256 0.5931,0.9527 1.318,0.5047 l 1.3181,-0.8146 -0.7941,2.0692 -0.794,2.0693 h 2.2853 2.2853 l -0.8398,-2.1886 -0.8399,-2.1886 1.8199,1.5104 c 1.0009,0.8307 2.2146,1.1155 2.6972,0.633 0.4825,-0.4825 0.8773,-0.1773 0.8773,0.6782 0,0.8556 0.8078,1.5556 1.7951,1.5556 0.9874,0 3.6574,0.929 5.9335,2.0644 l 4.1382,2.0645 -0.7427,1.9355 c -0.8731,2.2752 1.0435,2.568 3.1327,0.4787 l 1.4569,-1.4568 2.8959,1.5498 2.8959,1.5499 -1.6296,1.9635 -1.6296,1.9635 1.5435,1.5435 1.5435,1.5435 v -2.4221 -2.4221 l 3.367,0.6436 3.3669,0.6436 1.1242,-2.0087 c 1.4622,-2.6129 4.2808,-0.8809 3.1904,1.9604 l -0.835,2.1761 1.5599,-0.9641 1.56,-0.9641 v 1.9462 1.9463 l 5,1.215 5,1.215 -0.1677,2.1453 -0.1676,2.1454 1.8343,-0.7039 1.8343,-0.7039 v 2.1427 c 0,1.1784 0.15,2.1745 0.3333,2.2134 0.1834,0.039 3.9334,0.4047 8.3334,0.8129 4.4,0.4082 8.3,1.1263 8.6666,1.5959 0.3667,0.4695 1.8667,1.515 3.3334,2.3233 1.4666,0.8082 2.8584,2.7582 3.0927,4.3333 l 0.4261,2.8638 h 6.0499 6.0499 l -0.7675,2 -0.7675,2 5.6249,0.02 c 3.0936,0.011 6.4936,0.5701 7.5555,1.2419 l 1.9307,1.2215 -5.9307,-0.6815 -5.9307,-0.6814 1.9363,1.3516 c 1.065,0.7434 2.4722,1.0204 3.1272,0.6156 1.7298,-1.0691 7.6032,2.3843 7.6032,4.4706 v 1.7746 h -5.0829 c -5.808,0 -15.548,4.2462 -16.7148,7.287 -0.8828,2.3004 -4.869,2.8198 -4.869,0.6344 0,-0.7767 0.6,-1.0412 1.3333,-0.588 0.7334,0.4532 1.3334,0.1886 1.3334,-0.588 0,-1.7132 -2.2256,-1.871 -3.24,-0.2298 -0.4018,0.6502 -2.8798,1.5853 -5.5067,2.0781 -2.6268,0.4928 -5.5546,1.1948 -6.5061,1.5599 -0.9634,0.3697 -2.0379,-0.513 -2.4246,-1.9919 l -0.6945,-2.6558 -3.1474,0.8598 -3.1474,0.8598 2.4094,0.4997 c 3.9743,0.8242 1.9839,4.4935 -4.4094,8.1288 l -6,3.4116 -11.3333,0.439 c -6.2334,0.2414 -15.2297,0.6671 -19.9919,0.9462 l -8.6586,0.5073 -2.2422,-2.0293 c -1.2333,-1.116 -3.3369,-1.8118 -4.6748,-1.5461 l -2.4325,0.4831 0.4306,3.0466 c 0.6417,4.5404 -2.1015,6.8718 -8.2606,7.0206 -3.0268,0.073 -7.0034,0.6132 -8.8367,1.2004 l -3.3333,1.0675 2.6666,0.2266 2.6667,0.2266 -2.6667,1.1459 -2.6666,1.146 3.3333,0.2266 3.3333,0.2266 -3.3333,1.0675 c -1.8333,0.5871 -4.7533,1.1273 -6.4888,1.2004 l -3.1556,0.1329 0.6974,-2.6666 0.6973,-2.6667 h -1.5932 c -0.8763,0 -3.7937,-1.1218 -6.4831,-2.493 -5.1446,-2.6229 -10.6051,-2.4015 -13.0368,0.5285 l -1.4443,1.7403 3.0702,0.856 c 1.6886,0.4708 5.3331,1.8182 8.0989,2.9942 l 5.0287,2.1382 0.8489,3.4513 c 0.467,1.8982 2.7793,5.8513 5.1387,8.7846 2.3593,2.9333 5.2248,7.177 6.3677,9.4304 1.143,2.2534 2.9477,4.8187 4.0104,5.7007 l 1.9322,1.6035 0.7805,-2.034 c 1.1313,-2.9481 3.1633,-2.5012 5.6107,1.234 l 2.1413,3.2681 -0.8671,2.7319 c -0.4769,1.5026 -1.9227,2.732 -3.2129,2.732 h -2.3459 l 0.5646,3.8469 c 0.3105,2.1157 -0.067,5.0276 -0.8396,6.4706 l -1.4043,2.6239 3.2754,-0.6262 3.2754,-0.6261 0.094,1.8221 c 0.1849,3.5961 2.3879,-3.6113 2.4996,-8.1779 0.1343,-5.4884 1.839,-8.7142 3.9243,-7.4255 2.3542,1.455 1.6704,10.2173 -1.3079,16.7588 l -2.7317,6 -2.0851,-2.6666 -2.085,-2.6667 0.8042,2.3333 c 0.4423,1.2834 0.293,2.3334 -0.3318,2.3334 -0.6248,0 -1.4588,1.2343 -1.8533,2.7428 l -0.7172,2.7429 2.151,-1.7429 2.151,-1.7428 -1.1302,2 c -0.6216,1.1 -1.7338,2.7784 -2.4715,3.7298 l -1.3414,1.7297 -0.9238,-1.4947 -0.9238,-1.4948 -4.5273,2.76 c -4.7675,2.9065 -10.5272,3.6925 -10.5272,1.4366 0,-1.7507 -4.933,-1.7263 -6.0184,0.03 -0.4634,0.7497 -4.513,3.216 -8.9991,5.4806 l -8.1566,4.1174 -9.4129,-0.7676 c -5.1772,-0.4222 -8.663,-0.4385 -7.7463,-0.036 4.6862,2.0567 -15.6881,12.20116 -28.3333,14.10726 l -2.6667,0.402 0.091,-2.8653 0.091,-2.8654 -1.7951,0.6889 c -2.2437,0.861 -4.3877,4.7582 -4.3877,7.9755 v 2.4423 l -6.689,4.379 c -8.1704,5.3489 -17.0149,8.6056 -20.7969,7.658 -1.5506,-0.3885 -6.8774,-0.7944 -11.8374,-0.902 l -9.0182,-0.1955 -0.5985,-2.2889 -0.5986,-2.2889 -6.1018,-1.8949 c -3.356,-1.0422 -6.7598,-3.0832 -7.5641,-4.5355 -0.8042,-1.4524 -1.5938,-2.8723 -1.7548,-3.1555 -0.1609,-0.2831 -5.486,1.5053 -11.8335,3.9744 l -11.5409,4.4892 -3.2808,4.3014 c -4.1074,5.385 -3.4388,6.423 7.2172,11.204 l 8.6229,3.8689 -0.5761,1.6718 c -0.3169,0.9195 0.8323,3.7611 2.5538,6.3147 l 3.13,4.6428 v 6.246 c 0,3.4354 -0.5207,6.4461 -1.1571,6.6905 -0.6364,0.2445 -1.561,1.7448 -2.0547,3.334 l -0.8977,2.8895 2.7214,-0.7117 2.7215,-0.7117 0.01,3.8222 c 0,2.1022 1.0538,5.5428 2.3333,7.6458 l 2.3263,3.8235 5.9882,2.2101 5.9883,2.21 0.4771,2.4774 0.4771,2.4774 -3.7987,-0.8648 -3.7986,-0.8648 2.1773,1.6871 c 1.1975,0.9279 5.0134,3.6712 8.4798,6.0962 5.6131,3.9269 6.8168,6.2576 3.2318,6.2576 -1.456,0 -1.5382,0.9437 -0.4572,5.2506 l 0.8128,3.2385 2.2111,-0.8275 2.211,-0.8275 -1.7134,2.1092 -1.7135,2.1093 2.3802,-0.1929 2.3801,-0.193 0.7363,-4 c 0.405,-2.2 0.105,-4.8652 -0.6666,-5.9226 l -1.4031,-1.9226 1.451,0.8679 c 1.5852,0.9483 12.549,-8.5909 12.549,-10.9185 0,-1.8054 3.3925,-1.8565 6.6734,-0.1006 l 2.4981,1.3369 0.8516,-1.3778 0.8515,-1.3779 4.579,0.859 4.579,0.8591 -0.8256,-2.1515 -0.8256,-2.1514 h 1.6315 1.6315 l -0.804,3 c -0.4422,1.65 -0.8122,3.45 -0.8222,4 -0.01,0.55 -0.6536,1 -1.4302,1 -0.7766,0 -0.9839,-0.6927 -0.4607,-1.5394 l 0.9514,-1.5393 -1.5541,0.9605 -1.5541,0.9605 3.8983,3.8983 c 2.1441,2.144 5.0007,6.2891 6.3481,9.2111 l 2.4498,5.3128 2.3333,0.034 c 1.2834,0.019 2.3334,1.0044 2.3334,2.1899 v 2.1555 l -2.7632,-0.7226 -2.7632,-0.7225 2.1341,2.9004 c 2.8398,3.8596 6.0589,11.0032 6.0589,13.4455 0,1.0803 0.6,2.335 1.3334,2.7882 1.8252,1.1281 1.6939,-3.7727 -0.1505,-5.6171 -0.8161,-0.8162 -1.0747,-2.1459 -0.5746,-2.9551 1.2502,-2.0229 3.4435,-0.4476 2.5649,1.8421 l -0.7104,1.8513 3.0686,0.4394 c 1.6877,0.2417 3.7653,1.8425 4.617,3.5573 0.8638,1.7394 1.922,2.5136 2.3932,1.7511 0.4646,-0.7517 -1.9248,-4.7671 -5.3099,-8.9231 l -6.1547,-7.5562 1.3719,-1.3719 c 2.2082,-2.2082 5.2456,-0.2052 9.8817,6.5164 2.3848,3.4576 5.5049,7.4957 6.9334,8.9735 l 2.5973,2.6869 1.6084,-3.9418 c 0.8846,-2.168 2.807,-5.0265 4.2719,-6.3523 l 2.6635,-2.4104 5.1308,0.4216 5.1308,0.4216 2,4.2626 c 1.1,2.3444 3.1939,4.4444 4.653,4.6667 1.4592,0.2222 2.8697,1.5399 3.1345,2.9281 l 0.4815,2.524 -2.7266,-0.713 -2.7265,-0.713 -0.4079,3.5223 -0.408,3.5223 -4.3333,0.4179 c -2.4341,0.2346 -4.3334,-0.2036 -4.3334,-1 0,-0.7798 -1.9027,-1.4179 -4.2283,-1.4179 -2.3256,0 -5.2465,-0.9214 -6.4909,-2.0475 l -2.2625,-2.0476 0.6238,3.2631 0.6238,3.2631 -3.5209,2.3069 -3.5209,2.307 -3.2787,-1.4939 -3.2787,-1.4939 -0.1579,-3.0286 c -0.087,-1.6657 -0.1368,-3.3286 -0.1111,-3.6952 0.026,-0.3667 -1.3522,-0.6667 -3.0621,-0.6667 h -3.1088 l 1.0361,1.3333 c 0.5698,0.7334 1.4303,2.9834 1.912,5 l 0.8759,3.6667 h 2.6413 2.6413 v 2.5034 c 0,1.3769 0.7942,3.1626 1.765,3.9683 l 1.7651,1.4649 1.2349,-1.1887 c 0.6792,-0.6538 2.735,-1.3896 4.5683,-1.635 l 3.3333,-0.4462 -0.052,-3.6667 c -0.029,-2.0167 0.4211,-3.6667 1,-3.6667 0.5789,0 1.0525,0.9 1.0525,2 0,1.1 1.1596,2 2.5768,2 h 2.5769 l 0.9259,2.9173 0.9258,2.9172 -2.6891,2.1776 -2.6892,2.1776 1.2527,2.2385 c 0.689,1.2312 2.1583,2.2385 3.2652,2.2385 1.1068,0 1.6416,0.6 1.1884,1.3333 -0.4533,0.7334 0.1113,1.3334 1.2546,1.3334 1.1433,0 2.0787,0.9734 2.0787,2.1632 v 2.1633 l 1.6667,-1.3149 c 1.6211,-1.2789 6.9513,-1.8518 5.7135,-0.6141 -0.9287,0.9288 1.852,5.6025 3.3334,5.6025 0.7075,0 1.2864,-2.0646 1.2864,-4.588 0,-2.5234 0.6,-4.9588 1.3333,-5.412 0.7334,-0.4533 1.3334,-2.0015 1.3334,-3.4406 0,-1.4971 1.4261,-3.2664 3.3333,-4.1354 l 3.3333,-1.5187 3,1.3141 c 1.65,0.7228 4.9369,0.8976 7.3043,0.3884 2.3673,-0.5092 3.9819,-0.4043 3.588,0.2332 -0.394,0.6374 0.2652,1.159 1.4649,1.159 1.1997,0 3.9351,1.7538 6.0787,3.8974 l 3.8975,3.8974 v 4.198 4.198 l 3,-0.243 c 1.65,-0.1336 4.3597,-0.1766 6.0215,-0.095 l 3.0216,0.1476 2.3118,5 c 3.0179,6.5273 10.0793,12.196 7.803,6.2641 l -0.7941,-2.0693 1.5262,0.9432 1.5262,0.9433 -0.8547,-4.2736 -0.8547,-4.2736 1.3132,0.8116 c 0.7223,0.4464 1.3133,0.083 1.3133,-0.807 v -1.6187 l 2.6352,2.3849 c 1.4494,1.3116 2.225,3.0546 1.7235,3.8733 -0.5014,0.8186 0.5627,0.5197 2.3648,-0.6644 1.8021,-1.184 3.4681,-3.4329 3.7022,-4.9974 l 0.4258,-2.8447 2.4667,1.3202 2.4667,1.3201 0.6727,-1.656 0.6727,-1.656 1.4144,2 1.4145,2 0.02,-2.2547 c 0.011,-1.24 -0.5633,-2.6154 -1.2767,-3.0563 -1.5409,-0.9523 -4.5129,-11.3234 -3.5274,-12.309 0.3762,-0.3762 2.1953,0.5047 4.0424,1.9576 1.8471,1.4529 2.9299,3.0701 2.4063,3.5937 -0.8502,0.8503 4.1754,0.071 8.7784,-1.3608 0.9547,-0.297 1.3693,0.053 0.9213,0.7781 -0.448,0.7249 -0.1792,1.318 0.5974,1.318 0.7766,0 1.4661,1.05 1.5323,2.3334 0.066,1.2833 0.6833,0.3833 1.3714,-2 l 1.2512,-4.3334 h 2.3079 c 1.2692,0 3.0572,-1.2 3.9731,-2.6666 0.916,-1.4667 2.8603,-2.6667 4.3208,-2.6667 1.4714,0 2.6553,-0.8917 2.6553,-2 0,-1.1 0.6354,-2 1.412,-2 0.7767,0 1.0455,0.5931 0.5975,1.3181 l -0.8146,1.318 2.0692,-0.794 c 1.1381,-0.4367 2.0693,-0.1299 2.0693,0.6819 0,2.5227 2.3183,1.6185 3.053,-1.1907 l 0.6973,-2.6666 h -2.4307 c -1.3369,0 -2.6422,-0.6344 -2.9006,-1.4097 -0.7679,-2.3034 -5.0857,0.1465 -5.0857,2.8857 v 2.524 h -2.7171 -2.7172 l 0.3838,-3.6333 0.3838,-3.6334 -5.188,0.4184 -5.1881,0.4183 0.8129,-2.1183 0.8129,-2.1184 h -2.6249 c -1.4436,0 -2.6248,0.8358 -2.6248,1.8574 0,2.0842 -3.5919,3.8855 -5.4536,2.7349 -1.7683,-1.0929 -1.4833,-4.261 0.4536,-5.0426 0.9167,-0.3699 0.3167,-0.7199 -1.3333,-0.7778 l -3,-0.1052 v 4.7453 4.7454 l -1.4716,-0.9095 c -0.8094,-0.5003 -0.4768,0.6088 0.7391,2.4645 l 2.2107,3.374 -1.4058,0.8688 c -2.0162,1.2461 -4.0724,-0.3755 -4.0724,-3.2117 0,-1.3379 -1.2,-2.7463 -2.6667,-3.1298 l -2.6666,-0.6974 v -3.3713 c 0,-1.8543 -0.5646,-4.8564 -1.2547,-6.6714 l -1.2547,-3.3 -7.9215,-4.2221 -7.9215,-4.2222 -3.0377,-5.9063 c -3.6225,-7.0433 -2.9246,-8.1869 3.7245,-6.103 l 4.9989,1.5668 2.936,-3.3434 c 2.9876,-3.402 7.064,-4.507 7.064,-1.9148 0,0.7857 -1.0114,2.4357 -2.2476,3.6666 l -2.2476,2.2381 8.3648,0.4 8.3647,0.4 13.4165,-2.7363 c 7.3791,-1.505 14.2548,-3.432 15.2793,-4.2823 l 1.8628,-1.546 -1.5391,-0.9512 c -2.0448,-1.2637 -0.6935,-5.1494 3.28,-9.4319 l 3.2299,-3.4811 8.4515,-0.9639 8.4515,-0.9639 -4,-2.2217 -4,-2.2217 h -7.8705 -7.8705 l -0.5335,-1.5452 c -0.2934,-0.8498 1.2983,-1.9475 3.5372,-2.4392 4.7864,-1.0513 5.3251,-3.0315 1.0706,-3.9357 -16.5872,-3.5253 -28.4739,-7.0222 -35.9227,-10.568 l -8.9226,-4.2473 -0.7258,2.701 c -0.3992,1.4856 -0.734,5.2699 -0.744,8.4096 l -0.018,5.7085 -2.0575,0.7896 c -3.1059,1.1918 -3.568,0.061 -4.2867,-10.4923 -0.3639,-5.3429 -1.1161,-10.3143 -1.6714,-11.0476 -0.5554,-0.7334 -1.4449,-3.3659 -1.9767,-5.8501 l -0.9668,-4.5167 3.8128,1.0152 c 2.0971,0.5584 11.6129,1.2648 21.1463,1.5699 l 17.3333,0.5548 9.3333,-1.7297 9.3334,-1.7298 0.4101,-4.9289 0.4102,-4.9289 4.2565,-2.6159 c 2.3411,-1.4388 6.5065,-3.0332 9.2565,-3.543 5.6586,-1.0491 6.5192,-3.7064 2,-6.1755 -3.2185,-1.7584 -19.8234,-2.4547 -18.7938,-0.7881 0.3398,0.55 -0.3866,1 -1.6142,1 h -2.232 l 2.0717,-3.1619 2.0718,-3.1619 -8.9184,-2.1432 c -5.0393,-1.211 -18.2459,-6.8265 -30.3629,-12.9104 l -21.4444,-10.7671 v -1.9277 c 0,-2.37456 0.579,-2.38466 7.0546,-0.1231 l 5.1676,1.8047 15.5666,-1.0612 c 18.0239,-1.2287 29.0173,-3.01146 40.9072,-6.63356 4.6605,-1.4197 10.2855,-2.5814 12.4999,-2.5814 2.2144,0 7.4424,-1.5331 11.6178,-3.4069 l 7.5917,-3.4069 -0.5763,-3.9264 -0.5762,-3.9264 h 2.0086 c 1.1048,0 2.3541,-0.9 2.7762,-2 l 0.7675,-2 h 4.3085 4.3085 l -1.6,-1.6 c -2.337,-2.337 -1.9639,-5.1742 1.1111,-8.4473 l 2.7111,-2.8858 -2.0445,-1.6967 c -2.6792,-2.2236 -2.6194,-7.5826 0.1016,-9.1053 l 2.1459,-1.2009 -2.1459,-0.8235 c -2.9657,-1.138 -2.686,-4.3777 0.575,-6.6619 l 2.7211,-1.9058 -2.7211,-0.7116 -2.721,-0.7116 v -2.7914 c 0,-1.5924 0.8591,-2.7915 2,-2.7915 1.1,0 2,-0.5358 2,-1.1906 0,-0.6549 -0.9,-1.5361 -2,-1.9582 -2.7098,-1.0398 -2.5265,-4.4028 0.3334,-6.1182 l 2.3333,-1.3996 -2.3333,-1.3996 c -2.8948,-1.7363 -3.0141,-4.7536 -0.2491,-6.301 l 2.0842,-1.1664 -1.9466,-1.6155 c -2.3638,-1.9618 -1.3542,-6.8509 1.4147,-6.8509 h 1.9922 l -3.0265,-2.4507 c -3.1085,-2.517 -2.666,-5.5493 0.8097,-5.5493 1.0568,0 1.9214,-0.6 1.9214,-1.3333 0,-0.7333 -0.9,-1.3333 -2,-1.3333 -2.2288,0 -2.7523,-4.7111 -0.6667,-6 0.7333,-0.4532 1.3333,-4.7075 1.3333,-9.4539 v -8.6298 l 2.017,-0.774 c 1.1093,-0.4257 2.9806,0.026 4.1585,1.0033 l 2.1414,1.7772 -0.6904,7.6143 -0.6904,7.6143 1.8653,0.7158 c 2.4754,0.9499 2.3864,4.6832 -0.1347,5.6506 -2.7989,1.074 -2.4904,2.7096 0.6667,3.5352 3.5852,0.9375 3.3889,4.538 -0.3115,5.7125 l -2.9781,0.9452 2.9781,1.1017 c 3.56,1.3169 3.887,4.5448 0.6448,6.365 l -2.3333,1.3099 2.3333,0.899 c 1.3217,0.5092 2.3333,2.2823 2.3333,4.0897 v 3.1906 h -2 c -2.93,0 -2.4408,2.2404 0.6667,3.053 3.5711,0.9339 3.3849,4.2187 -0.3333,5.8796 l -3,1.3401 3,0.9535 c 3.8941,1.2377 3.9081,5.6391 0.022,6.8726 l -2.9781,0.9452 2.9781,1.1017 c 3.7064,1.3711 3.8314,4.4386 0.2823,6.9246 l -2.6958,1.8882 2.0291,1.684 c 2.3368,1.9393 2.7114,7.4451 0.5955,8.7528 l -1.4336,0.886 2.8735,3.0586 2.8734,3.0587 -0.4398,2.9974 -0.4399,2.9974 5.6667,2.0788 c 3.1167,1.1434 5.6667,2.8548 5.6667,3.8033 0,0.9484 0.9,1.7244 2,1.7244 2.4024,0 2.5792,1.5541 0.4222,3.7112 -0.8678,0.8677 -1.3178,1.7729 -1,2.0114 20.5181,15.39886 41.8639,25.98496 62.3676,30.93046 l 9.7899,2.3614 6.8768,-0.8381 c 3.7822,-0.461 9.7268,-1.2172 13.2101,-1.6806 l 6.3334,-0.8425 -0.015,2.5068 -0.015,2.5067 -8.3187,5.3204 c -4.5752,2.9262 -10.2686,6.3905 -12.6519,7.6985 l -4.3334,2.3781 -0.1329,5.6349 c -0.1838,7.7945 -1.6046,12.2144 -4.0796,12.691 l -2.0955,0.4036 -0.846,-4.2299 c -0.4653,-2.3265 -0.846,-5.8744 -0.846,-7.8842 v -3.6543 l -5.6666,1.0962 c -3.1167,0.6029 -10.5813,1.1224 -16.588,1.1543 -6.0067,0.032 -11.3007,0.6719 -11.7644,1.4221 -0.4636,0.7503 -4.1062,1.2575 -8.0946,1.1271 -10.6723,-0.3487 -11.3344,1.2724 -1.4123,3.4582 l 3.8073,0.8388 0.6815,2.6059 c 0.3748,1.4333 1.7624,2.606 3.0836,2.606 1.3211,0 3.3512,0.3642 4.5111,0.8093 l 2.1091,0.8093 v 4.4614 4.4614 l 12.3333,3.9401 c 6.7834,2.167 16.0982,4.6761 20.6996,5.5758 l 8.3663,1.6359 12.6337,-0.6608 c 6.9486,-0.3635 12.6338,-0.1444 12.6338,0.4867 0,2.2252 -4.8645,5.8613 -13.5197,10.1059 -10.6595,5.2274 -11.2474,5.9307 -12.224,14.6216 l -0.7768,6.9132 1.4963,0.4988 c 0.823,0.2743 1.0546,1.2133 0.5149,2.0867 -1.5295,2.4748 -3.4907,1.8688 -3.4907,-1.0787 v -2.6666 h -2.5153 -2.5153 l -0.9247,-6.1666 -0.9248,-6.1666 -6.2266,1.0925 c -3.4247,0.6008 -9.121,1.063 -12.6585,1.027 -3.5374,-0.036 -5.7,0.3868 -4.8057,0.9396 0.8944,0.5527 1.2416,2.0069 0.7717,3.2314 l -0.8544,2.2265 -2.3399,-0.6612 c -1.2869,-0.3636 -4.9459,-1.0672 -8.1309,-1.5634 l -5.7911,-0.9023 0.4696,2.4715 0.4696,2.4716 5.9881,1.4454 5.9882,1.4454 0.4311,2.2212 c 0.2371,1.2217 1.033,2.2213 1.7688,2.2213 0.7357,0 1.1462,2.2223 0.9122,4.9384 l -0.4254,4.9383 7.9899,2.8334 c 4.3945,1.5584 10.99,3.9385 14.6567,5.2891 3.6667,1.3506 9.8366,2.5033 13.7109,2.5616 3.8743,0.058 7.4817,0.8105 8.0163,1.6716 l 0.9721,1.5658 11.7364,0.3674 c 14.6109,0.4575 15.6078,6.79 1.5643,9.9362 -6.2015,1.3893 -15.3984,6.0476 -14.5738,7.3818 0.9124,1.4763 -2.2344,10.5164 -3.6607,10.5164 -0.5677,0 -0.6722,1.8 -0.2322,4 l 0.8,4 h -2.7915 -2.7915 l 0.7675,2 c 0.4221,1.1 0.1683,2 -0.564,2 -1.5345,0 -3.5185,-6.2226 -3.0819,-9.6667 l 0.2957,-2.3333 h -2.2351 -2.2352 l 0.6118,-4.1684 0.6118,-4.1684 -8.1271,0.9447 c -14.0972,1.6385 -14.73,1.7355 -17.7788,2.7257 -1.6418,0.5333 -2.5933,1.6033 -2.1146,2.3779 l 0.8704,1.4083 -2.2188,-0.8514 c -1.2203,-0.4682 -2.2187,-0.2702 -2.2187,0.4401 0,0.7103 0.9,1.3665 2,1.4582 5.3417,0.4451 7.721,2.2071 6.9519,5.1481 l -0.6138,2.3472 2.7225,-0.712 2.7225,-0.712 -0.8948,2.5477 -0.8948,2.5476 1.6699,-2.0103 c 0.9185,-1.1056 3.0865,-1.8052 4.8179,-1.5545 l 3.148,0.4558 -0.9068,-1.4672 c -0.4987,-0.807 -1.558,-1.0648 -2.354,-0.5728 l -1.4472,0.8944 0.9648,-1.5611 c 0.5307,-0.8586 1.5234,-1.2159 2.2061,-0.794 0.6826,0.4219 1.2412,-0.4183 1.2412,-1.8671 0,-1.4489 -0.708,-2.8703 -1.5733,-3.1587 l -1.5732,-0.5244 0.8972,-2.3379 0.8971,-2.3378 1.5487,0.9571 1.5488,0.9572 -0.9034,-1.4618 -0.9035,-1.4618 3.6845,0.2832 3.6844,0.2832 0.4775,2.4795 c 0.2627,1.3637 -0.032,2.8514 -0.6537,3.3059 -0.6221,0.4546 -1.7844,2.6584 -2.5829,4.8973 l -1.4518,4.0709 3.5701,-0.524 3.5701,-0.5239 2.456,2.4531 c 1.3581,1.3565 4.3583,2.4531 6.7116,2.4531 h 4.2555 l -0.5874,-1.5318 c -0.7296,-1.9023 1.7941,-3.6357 2.8369,-1.9485 0.418,0.6765 1.9595,0.9163 3.4254,0.5329 1.466,-0.3833 2.6654,-0.069 2.6654,0.6991 0,0.7679 -1.2238,1.5879 -2.7195,1.8222 -3.8229,0.5989 -2.655,3.1153 1.3861,2.9865 1.8334,-0.058 3.6492,0.36 4.0352,0.9297 0.386,0.5697 1.586,0.4674 2.6667,-0.2272 l 1.9648,-1.2629 -2,-1.3374 -2,-1.3374 3.2732,0.3374 3.2731,0.3374 0.06,-3.3334 0.06,-3.3333 h 2 2 l -0.1029,2.972 -0.1029,2.972 1.4362,-1.0959 c 0.7899,-0.6028 4.2422,-1.2156 7.6718,-1.3617 l 6.2355,-0.2658 1.3397,2.3897 1.3398,2.3897 4.0118,-3.8399 c 2.2543,-2.1577 4.8606,-3.5141 5.9494,-3.0963 1.8542,0.7115 7.5549,-4.0585 7.5549,-6.3215 0,-1.7928 9.813,-12.0743 11.5417,-12.0926 0.8819,-0.01 2.0958,-0.5556 2.6975,-1.2138 0.6252,-0.6839 0.3798,-0.7857 -0.5725,-0.2376 -0.9167,0.5275 -1.6667,0.3237 -1.6667,-0.4529 0,-0.7766 1.2,-1.4121 2.6667,-1.4121 1.4666,0 2.6666,-0.6354 2.6666,-1.412 0,-0.7766 -0.6495,-1.0106 -1.4434,-0.5199 -2.1537,1.331 2.3209,-6.7811 7.4384,-13.4854 16.7917,-21.9983 33.6029,-56.6348 46.1679,-95.1206 l 4.0934,-12.538 1.1848,1.8713 1.1848,1.8713 0.02,-1.8889 c 0.011,-1.0389 0.354,-1.5552 0.7618,-1.1475 1.7729,1.7729 -6.7589,28.5925 -16.6363,52.2958 -10.8303,25.9901 -24.0523,47.8502 -44.8035,74.0739 -6.6734,8.4334 -12.5552,16.5334 -13.0707,18 l -0.9373,2.6667 5.6865,-6.0289 c 3.1276,-3.3159 7.6395,-8.4159 10.0264,-11.3333 l 4.3399,-5.3045 1.0393,1.6135 1.0393,1.6135 1.835,-2.9468 1.8351,-2.9468 -2.2142,1.8299 -2.2142,1.8299 v -1.4179 c 0,-0.7798 0.6047,-1.7916 1.3438,-2.2484 2.49,-1.5389 15.7785,-20.3304 19.938,-28.1947 3.6205,-6.8453 4.0336,-6.6394 1.7416,0.8678 -0.3358,1.1 1.5527,-1.6 4.1967,-6 13.7088,-22.8129 31.0949,-65.3224 38.8738,-95.0474 3.7894,-14.4805 4.1984,-15.0238 6.0374,-8.0202 l 1.1557,4.401 -0.5646,-5.0299 -0.5645,-5.0299 1.2544,0.7753 c 0.6899,0.4263 1.2451,-0.6102 1.2339,-2.3035 l -0.02,-3.0787 -1.2925,2 c -1.5751,2.4373 -1.5751,0.3321 0,-3.3333 l 1.1459,-2.66676 0.1141,2 0.1142,2.00006 1.4207,-2.00006 1.4208,-2 -0.6839,3.33336 c -1.7165,8.3661 -3.7869,25.5227 -3.1561,26.1535 0.385,0.385 1.8079,-5.4292 3.1621,-12.9204 l 2.4622,-13.6204 0.8422,3.8603 0.8423,3.8604 0.3672,-4.6667 0.3672,-4.66666 0.9144,6.66666 0.9144,6.6667 0.2421,-4.6667 c 0.1331,-2.5667 0.8586,-7.3422 1.6122,-10.61236 0.7536,-3.2702 1.8685,-11.3467 2.4776,-17.9479 0.6192,-6.7097 1.7644,-12.221 2.5973,-12.4987 0.8194,-0.2731 1.4898,-1.082 1.4898,-1.7975 0,-0.7155 -0.6,-0.93 -1.3334,-0.4768 l -1.3333,0.824 v -21.8738 c 0,-12.0306 -0.2797,-27.5161 -0.6216,-34.4121 l -0.6215,-12.5381 1.1305,4 1.1304,4 0.2942,-4 0.2943,-4 1.1938,4.6666 c 0.6567,2.5667 1.6296,17.5668 2.1621,33.3335 l 0.9682,28.6665 0.8456,-5.3333 0.8456,-5.3333 0.3894,6 0.3895,6 1.0325,-6 1.0325,-6 -0.6814,17.3333 c -1.0955,27.8649 -5.369,51.33326 -9.3475,51.33326 h -2.0727 l 0.7695,-6.3333 0.7695,-6.3333 -1.077,3.3333 c -0.5924,1.8333 -1.4928,5.7333 -2.001,8.6667 l -0.9239,5.3333 1.5086,-2 1.5086,-2 -0.7924,2.4424 c -0.4359,1.3433 -0.8017,3.1433 -0.8129,4 l -0.02,1.5576 -1.0657,-1.6787 c -0.6005,-0.9459 -1.0141,1.4934 -0.9474,5.5878 0.065,3.9966 0.6284,7.752 1.2518,8.3454 0.6234,0.5934 0.7184,-0.2712 0.2112,-1.9212 l -0.9221,-3 h 1.4486 1.4486 l -0.8,-3.6666 -0.7999,-3.6667 1.5491,2 1.549,2 -0.7193,-4 -0.7192,-4 2.063,4.6139 2.063,4.6138 -1.5272,8.0528 c -6.1234,32.2892 -15.9706,64.7531 -25.3609,83.6096 -9.8793,19.8386 -21.0634,39.1554 -22.4811,38.8289 -0.6712,-0.1546 -1.1409,0.7309 -1.0438,1.9678 0.097,1.2369 -0.5235,2.2634 -1.3791,2.281 -0.8556,0.018 -2.0556,0.5784 -2.6667,1.246 l -1.1111,1.2137 1.6667,-0.9591 c 3.2313,-1.8595 1.6007,1.6291 -4.3333,9.2709 -3.3,4.2498 -6,8.4137 -6,9.2533 0,1.761 -6.8627,8.1137 -8.2854,7.6698 -0.5236,-0.1634 -0.6271,0.5497 -0.2299,1.5847 0.4063,1.0589 -0.4539,2.5111 -1.9671,3.3209 l -2.6891,1.4392 -0.8873,-1.4356 c -0.7232,-1.1702 2.4668,-5.9514 6.156,-9.2267 0.4202,-0.373 1.1513,-1.7282 1.6248,-3.0116 0.4735,-1.2833 2.2298,-2.3807 3.9028,-2.4386 1.673,-0.058 2.3255,-0.3966 1.4501,-0.7528 -0.8755,-0.3561 -1.242,-1.5591 -0.8145,-2.6732 0.4348,-1.1331 1.1362,-1.4525 1.5918,-0.7249 0.4479,0.7154 1.9669,-0.2331 3.3755,-2.1077 1.4087,-1.8746 1.7808,-2.9261 0.8271,-2.3366 l -1.7341,1.0717 0.6174,-1.8523 c 0.3396,-1.0187 1.2674,-1.8522 2.0619,-1.8522 0.7944,0 1.9444,-0.5462 2.5555,-1.2138 l 1.1111,-1.2138 -1.6666,0.9592 c -2.4436,1.4061 -2.0434,-0.237 1.2157,-4.9925 1.5854,-2.3132 2.1461,-3.5365 1.246,-2.7184 -0.9001,0.8181 -3.5472,4.2054 -5.8825,7.5274 -2.3352,3.322 -8.9484,12.1706 -14.6959,19.6634 -5.7475,7.4929 -9.7975,13.2201 -9,12.7272 0.7975,-0.4928 1.4592,-0.1107 1.4704,0.8493 l 0.02,1.7453 1.4144,-2 1.4145,-2 -0.5518,2 c -0.3035,1.1 -1.8065,2.0184 -3.3401,2.0409 -1.5336,0.023 -4.0116,1.1481 -5.5068,2.5012 l -2.7185,2.4602 1.2435,2.3236 c 1.621,3.0289 0.2937,4.2563 -2.808,2.5963 l -2.4613,-1.3172 0.8632,2.2495 0.8633,2.2496 -1.3221,-0.8171 c -0.7272,-0.4494 -2.2096,0.2022 -3.2942,1.448 -1.0847,1.2457 -4.2547,4.252 -7.0445,6.6805 -4.6773,4.0716 -5.9537,7.2983 -1.8811,4.7555 2.4529,-1.5315 5.0887,-1.8064 5.0887,-0.5306 0,1.4974 -21.9355,21.1637 -30,26.8964 -9.9181,7.0504 -22.3379,14.7553 -21.4383,13.2996 0.4336,-0.7014 0.1786,-1.4785 -0.5666,-1.7269 -0.7451,-0.2484 -0.086,-1.2439 1.4646,-2.2123 1.5506,-0.9684 2.4211,-1.1164 1.9345,-0.329 -0.4867,0.7875 -0.2495,1.4318 0.5271,1.4318 0.7766,0 1.412,-0.9354 1.412,-2.0787 0,-1.1433 0.5,-1.7697 1.1111,-1.392 0.6111,0.3777 1.1125,-0.037 1.1142,-0.9213 v -1.608 l -8.1141,3.8807 c -4.4628,2.1344 -9.9142,5.2123 -12.1142,6.8397 -16.186,11.9733 -72.8742,30.9011 -101.2391,33.803 -7.0039,0.7166 -13.2302,1.6093 -13.8363,1.9839 -0.6061,0.3746 -6.587,0.792 -13.2908,0.9277 l -12.1888,0.2466 1.8925,3.6598 1.8926,3.6598 -4.8025,0.7793 c -8.5824,1.3927 -12.371,-3.4616 -5.3498,-6.8545 l 2.9222,-1.4122 -9,-0.09 -9,-0.09 v 1.9073 c 0,1.049 1.35,2.1245 3,2.39 1.65,0.2654 -1.65,0.9584 -7.3333,1.5398 -5.6833,0.5814 -10.3333,1.6253 -10.3333,2.3197 0,0.6944 -1.2943,1.7413 -2.8761,2.3264 l -2.8761,1.064 8.009,3.9373 8.009,3.9374 -0.6218,-2.3776 -0.6217,-2.3776 h 2.7435 c 3.4135,0 4.9244,2.2284 3.0456,4.4922 l -1.418,1.7087 6.9699,2.8724 c 26.0607,10.7399 52.7645,16.484 94.97,20.4283 18,1.6822 48.6954,-1.3622 76.0453,-7.5421 17.169,-3.8795 16.1769,-3.7959 16.1769,-1.3625 0,3.1773 -18.5419,8.4234 -47.5555,13.4549 l -12.6667,2.1966 -20.9369,0.2091 c -11.5152,0.115 -20.3652,0.4091 -19.6666,0.6535 0.6986,0.2445 1.2702,0.9945 1.2702,1.6667 0,1.7489 -3.6803,1.5146 -4.2759,-0.2722 l -0.4982,-1.4943 -5.9463,0.3555 c -33.1054,1.9794 -75.4491,-6.9172 -105.57,-22.1806 l -6.3763,-3.2311 -0.094,1.6891 c -0.052,0.929 -0.6094,0.4891 -1.2396,-0.9775 -0.6303,-1.4667 -1.1881,-2.0167 -1.2397,-1.2223 -0.1508,2.3246 -4.0937,1.6583 -4.0937,-0.6918 0,-1.1775 -5.4985,-6.0146 -12.2515,-10.7778 -6.7383,-4.7528 -15.4383,-11.5517 -19.3333,-15.1086 -3.895,-3.5569 -7.0818,-5.8069 -7.0818,-5 0,0.8069 0.7,1.4671 1.5555,1.4671 0.8556,0 1.1482,0.4074 0.6503,0.9053 -0.4979,0.4979 -2.6736,-0.4021 -4.8349,-2 -2.1613,-1.5979 -4.7039,-2.8961 -5.6503,-2.8848 l -1.7206,0.02 2,1.4207 2,1.4208 -3.8996,-0.8584 -3.8995,-0.8583 1.8419,2.4172 c 4.7463,6.2287 11.0721,9.0722 12.2593,5.5106 l 0.5244,-1.5732 2.4036,0.9223 2.4035,0.9223 -1.6735,2.0165 c -0.9204,1.109 -1.438,2.1583 -1.1501,2.3317 0.2878,0.1735 1.8158,1.3999 3.3956,2.7255 l 2.8722,2.4102 2.7338,-1.7072 c 3.2044,-2.0012 5.4923,-0.5195 2.9039,1.8807 l -1.7734,1.6444 1.0683,-1.8727 1.0682,-1.8727 -1.604,0.9914 -1.6041,0.9914 1.5522,1.8703 c 2.846,3.4293 38.3497,23.2293 40.3063,22.4784 1.0599,-0.4067 2.7838,0.1172 3.8309,1.1643 13.8106,13.8106 76.7123,24.5672 128.7394,22.0154 17.997,-0.8828 63.0402,-6.9522 67.0794,-9.0388 5.8548,-3.0245 34.9866,-11.0635 33.9369,-9.365 -0.3661,0.5923 0.085,1.3271 1.0025,1.6329 0.9175,0.3059 -3.1288,2.4343 -8.9917,4.7299 -12.2157,4.7831 -11.9332,5.4579 0.6736,1.6085 4.7666,-1.4554 9.5666,-2.6417 10.6666,-2.636 l 2,0.01 -2,1.4144 -2,1.4145 2,-0.546 c 1.1,-0.3003 2,-1.2936 2,-2.2073 0,-0.9138 4.1225,-3.103 9.1612,-4.865 l 9.1611,-3.2036 1.9562,1.0948 1.9562,1.0947 -7.1173,2.9528 c -3.9146,1.624 -8.3174,3.5299 -9.784,4.2354 -2.5226,1.2133 -14.9181,5.0818 -26.6667,8.3223 -6.6938,1.8462 -7.0357,2.115 -4.6281,3.6376 l 1.9614,1.2404 -1.588,0.02 c -0.8733,0.011 -1.9588,-0.5796 -2.412,-1.3129 -0.4532,-0.7333 -1.8033,-1.3333 -3.0002,-1.3333 h -2.1761 l 2.5881,1.9576 2.5882,1.9576 -1.8889,0.042 c -1.0389,0.023 -1.6133,0.3179 -1.2765,0.6547 0.3367,0.3368 4.0957,-0.2973 8.3531,-1.4091 l 7.7409,-2.0214 1.5394,2.1053 1.5394,2.1053 8.2778,-3.0148 8.2777,-3.0148 1.6023,1.6024 1.6024,1.6023 -3.7266,1.4169 c -2.0496,0.7792 -4.9224,1.0373 -6.3841,0.5733 l -2.6575,-0.8434 0.853,1.3802 c 1.1138,1.8022 -3.4596,3.2283 -6.5499,2.0425 l -2.4066,-0.9235 0.9641,1.5599 c 1.0061,1.6279 0.084,1.9325 -6.404,2.1166 -4.382,0.1243 -6.2032,2.8911 -2.5298,3.8433 1.3239,0.3432 0.1572,0.6936 -2.5928,0.7787 -2.75,0.085 -5,-0.4265 -5,-1.1369 0,-0.7103 1.05,-0.965 2.3333,-0.5659 l 2.3333,0.7255 -2.0264,-1.3285 -2.0264,-1.3285 -14.4913,4.3885 c -7.9703,2.4138 -13.6584,4.7189 -12.6403,5.1226 l 1.8511,0.734 -1.7454,0.1052 c -0.9599,0.058 -1.3745,0.7053 -0.9213,1.4386 0.4532,0.7334 0.1887,1.3334 -0.588,1.3334 -0.7766,0 -1.412,-0.9405 -1.412,-2.0899 v -2.0898 l -2.3333,0.7224 c -1.2833,0.3973 -8.9333,1.9498 -17,3.45 -20.2458,3.7652 -20.8717,3.9303 -20.0352,5.2837 0.4073,0.659 -0.5724,1.615 -2.1772,2.1243 l -2.9178,0.9261 -1.7682,-2.4183 -1.7683,-2.4182 v 2.1239 2.1239 l -7.6666,0.7696 c -4.2167,0.4233 -13.0667,1.0449 -19.6667,1.3814 l -12,0.6117 4.6667,-1.0443 4.6666,-1.0442 -24.6666,-0.5395 c -13.5667,-0.2967 -25.835,-0.1825 -27.2629,0.2539 l -2.5963,0.7933 7.0121,0.9302 c 3.8567,0.5116 10.575,0.5271 14.9296,0.034 l 7.9175,-0.8957 v 1.7171 1.7171 l 27.6666,-0.8436 c 48.6996,-1.485 85.2831,-8.0186 127.8133,-22.8267 19.146,-6.6663 20.5201,-6.9509 20.5201,-4.2504 0,3.9786 -44.4216,18.9445 -73.8078,24.8664 -7.2275,1.4565 -13.6829,2.9831 -14.3453,3.3924 -0.6623,0.4094 -3.7488,0.9902 -6.8589,1.2908 -5.9644,0.5764 -25.098,3.4884 -39.6547,6.0351 -4.7667,0.8339 -21.5667,1.5198 -37.3333,1.5242 l -28.6667,0.01 -14.4069,-2.1207 c -34.2536,-5.0423 -62.7402,-13.2278 -88.2747,-25.3652 l -15.1946,-7.2225 -1.5585,1.8779 c -2.0375,2.4551 -4.5405,2.3788 -7.1367,-0.2174 l -2.0953,-2.0952 v 2.0952 c 0,2.2221 -4.653,2.9414 -5.9066,0.9131 -0.4018,-0.6502 -2.9872,-1.5912 -5.7453,-2.0911 -2.7581,-0.4998 -6.3647,-1.2329 -8.0147,-1.629 l -3,-0.7202 v 2.6263 2.6263 l -3.285,-0.6279 -3.2849,-0.628 0.5123,2.6604 0.5124,2.6603 -2.5608,-0.6697 -2.5607,-0.6696 v 1.9488 c 0,2.9827 -4.4661,6.3622 -8.4076,6.3622 h -3.5309 l -2.2199,-3.3879 -2.2199,-3.388 1.6295,-3.5764 1.6295,-3.5763 -1.6979,-0.566 c -0.9339,-0.3113 -3.048,-1.916 -4.698,-3.566 -1.65,-1.65 -3.784,-3.2614 -4.7424,-3.5808 -0.9583,-0.3195 -1.7424,-2.0308 -1.7424,-3.803 v -3.2223 l -3,-0.426 -3,-0.4261 0.02,-2.9073 0.02,-2.9072 1.2925,2 1.2925,2 0.02,-1.5689 c 0.011,-0.8629 1.0705,-1.8096 2.3538,-2.1038 l 2.3333,-0.5349 -6,-1.5575 c -3.3,-0.8567 -8.2217,-2.6947 -10.9372,-4.0845 l -4.9373,-2.5268 -0.6906,1.5215 c -0.3798,0.8368 -0.5581,0.3215 -0.3961,-1.1451 l 0.2946,-2.6667 -2.6667,0.2945 c -1.4667,0.162 -1.8643,-0.055 -0.8837,-0.4832 l 1.7829,-0.7777 -4.3275,-4.4649 c -2.3802,-2.4557 -4.8474,-4.1437 -5.4827,-3.751 -0.6353,0.3926 -0.9902,0.1311 -0.7887,-0.5812 0.2015,-0.7122 -2.5223,-4.6616 -6.0529,-8.7762 l -6.4192,-7.4813 -3.1694,0.5747 -3.1694,0.5747 -0.4473,-2.2308 -0.4473,-2.2309 -3.2974,5.3333 c -1.8136,2.9333 -4.1307,5.3333 -5.1491,5.3333 h -1.8517 l -2.3935,7.3334 c -1.3163,4.0333 -2.4331,10.1833 -2.4816,13.6666 l -0.088,6.3334 h -2 c -1.1,0 -1.9908,-1.05 -1.9796,-2.3334 l 0.021,-2.3333 1.2925,2 1.2925,2 0.02,-1.7619 c 0.011,-0.969 -0.9521,-2.7344 -2.1407,-3.923 l -2.161,-2.161 0.8103,9.9229 c 0.8089,9.9057 0.5225,10.7489 -1.1299,3.3259 l -0.8749,-3.9305 -1.2213,1.9305 c -0.6717,1.0617 -1.2213,2.5304 -1.2213,3.2638 0,0.7333 0.5817,0.4333 1.2925,-0.6667 l 1.2925,-2 0.02,3.9633 0.021,3.9634 -2.119,-3.0252 c -1.1654,-1.6638 -1.7509,-3.9841 -1.3011,-5.1562 0.4497,-1.172 -0.1843,-3.2381 -1.409,-4.5914 l -2.2266,-2.4604 0.8052,-9.6049 0.8053,-9.605 4.2555,-8.6441 4.2554,-8.6441 8.4257,-8.3022 8.4257,-8.3021 -2.2145,-1.7956 c -1.218,-0.9875 -1.8377,-1.1648 -1.3771,-0.3939 0.4607,0.7709 -2.6064,5.0095 -6.8156,9.4191 -4.2092,4.4096 -8.958,10.1289 -10.5529,12.7095 -2.6811,4.3381 -6.957,6.4189 -6.957,3.3856 0,-3.0102 9.9272,-15.9102 17.668,-22.9588 l 8.332,-7.5868 -4.5247,2.4816 c -6.0774,3.3331 -20.7606,18.2036 -22.7741,23.0647 -0.9245,2.2321 -2.3424,3.6259 -3.3105,3.2544 l -1.6934,-0.6498 -1.9992,6.0728 c -1.0996,3.34 -1.4518,6.0728 -0.7828,6.0728 0.6691,0 1.0798,2.9961 0.9127,6.658 l -0.3038,6.658 -2.4288,-2.198 c -1.3358,-1.2089 -2.4652,-1.655 -2.5098,-0.9913 -0.045,0.6636 -0.3707,5.2051 -0.7246,10.0921 l -0.6436,8.8855 1.4447,0.8929 1.4447,0.8929 -0.7507,-3.7784 -0.7508,-3.7784 1.504,3.3333 1.504,3.3334 1.2207,-2.6667 1.2207,-2.6667 -0.6758,3.3334 c -0.3717,1.8333 -0.6841,3.7645 -0.6941,4.2915 -0.01,0.5269 -1.0031,0.5802 -2.2069,0.1182 l -2.1887,-0.8399 0.9591,5.2151 c 0.5276,2.8683 1.6008,5.8151 2.385,6.5484 l 1.4258,1.3333 -0.6799,-2 c -0.374,-1.1 -1.1266,-3.4251 -1.6724,-5.1669 l -0.9925,-3.167 1.3284,0.821 c 0.7307,0.4516 1.7349,2.4401 2.2315,4.419 0.4967,1.9789 2.0632,5.2272 3.4811,7.2184 1.4179,1.9913 2.578,4.439 2.578,5.4394 0,2.7189 17.7136,25.919 27.0201,35.3892 4.4787,4.5575 8.2863,9.2624 8.4614,10.4555 0.1751,1.193 -0.087,1.7641 -0.5816,1.2692 -0.4949,-0.495 -0.9144,-1.6 -0.9321,-2.4555 -0.018,-0.8556 -1.178,-1.4539 -2.5785,-1.3295 l -2.5464,0.226 -9.0709,-9.0709 c -4.9891,-4.9891 -8.6825,-8.3908 -8.2077,-7.5594 0.4928,0.8629 0.3424,1.0348 -0.3505,0.4004 -0.6676,-0.6111 -1.2888,-1.6611 -1.3805,-2.3333 -0.092,-0.6722 -0.2416,-1.5957 -0.3333,-2.0522 -0.092,-0.4564 -0.9848,-0.1509 -1.9847,0.6789 l -1.8179,1.5088 0.3751,-3.4179 0.3752,-3.418 -1.6798,1.3942 c -0.924,0.7668 -2.1709,0.9494 -2.771,0.4057 -0.6001,-0.5436 -0.6535,-0.2286 -0.1185,0.7 0.5349,0.9286 1.633,1.2802 2.4403,0.7813 l 1.4678,-0.9072 -0.8374,2.1823 -0.8374,2.1822 2.9075,2.0365 c 1.5991,1.1201 2.381,2.0365 1.7375,2.0365 -0.6435,0 -0.065,1.2212 1.2859,2.7137 1.3507,1.4925 3.2244,2.4187 4.1639,2.0582 0.9395,-0.3605 2.12,0.011 2.6235,0.8257 l 0.9154,1.4811 -1.4473,-0.8944 c -0.7959,-0.492 -1.8482,-0.2456 -2.3383,0.5475 l -0.8912,1.4419 -2.5343,-2.2935 c -1.3939,-1.2614 -2.5343,-1.8867 -2.5343,-1.3894 0,0.4972 -1.4949,-0.075 -3.3219,-1.2726 -1.827,-1.1971 -3.0534,-2.6109 -2.7253,-3.1418 0.3281,-0.5309 -0.3682,-0.9653 -1.5474,-0.9653 h -2.144 l 5.2026,4.7679 c 2.8615,2.6223 5.2027,5.1723 5.2027,5.6666 0,0.4944 0.45,1.3488 1,1.8988 0.55,0.55 1,0.053 1,-1.1042 0,-1.1573 0.8394,-1.981 1.8655,-1.8304 2.3773,0.3489 6.4117,3.6574 5.5322,4.5369 -0.3666,0.3666 -1.5111,-0.034 -2.5431,-0.8907 l -1.8766,-1.5574 -0.8071,2.1033 c -0.4439,1.1568 -0.2819,1.7787 0.3599,1.382 1.7401,-1.0754 4.1403,2.4181 2.9664,4.3175 l -1.0168,1.6454 z m 264.4235,-178.9589 -1.4378,-2.6865 1.7242,-0.5442 c 0.9483,-0.2994 5.0242,-0.3754 9.0575,-0.1689 4.0333,0.2065 9.0533,0.4603 11.1555,0.5641 l 3.8222,0.1886 -0.6974,2.6667 -0.6973,2.6666 h 6.5418 c 3.7154,0 6.5419,-0.61 6.5419,-1.412 0,-0.7766 0.75,-0.9614 1.6666,-0.4107 l 1.6667,1.0013 -1.6551,-2.0453 c -0.9103,-1.1249 -1.2603,-2.4401 -0.7778,-2.9226 1.463,-1.463 5.509,-0.9824 6.0771,0.7219 l 0.5331,1.5993 0.8961,-2.3352 c 0.4928,-1.2843 0.3913,-2.0232 -0.2256,-1.642 -0.6169,0.3813 -2.26,-0.1471 -3.6514,-1.1743 l -2.5297,-1.8675 1.5161,-1.5393 1.5162,-1.5392 1.0232,1.6555 1.0231,1.6555 -1.7453,-1.0787 -1.7454,-1.0787 0.9154,1.4811 c 0.8616,1.3942 4.83,0.7981 4.83,-0.7255 0,-1.4302 -6.5302,-6.7023 -7.3215,-5.9109 -0.4507,0.4506 -0.4235,-0.2123 0.06,-1.4733 0.4839,-1.261 1.7156,-2.2927 2.7372,-2.2927 1.0215,0 1.8573,-1.2 1.8573,-2.6667 0,-1.4666 0.6,-2.7416 1.3334,-2.8333 0.7333,-0.092 1.7833,-0.3224 2.3333,-0.5127 0.55,-0.1903 2.3984,-0.7979 4.1075,-1.3503 l 3.1075,-1.0042 -0.6494,-2.4831 c -0.3571,-1.3657 -0.01,-2.483 0.7814,-2.483 0.7869,0 1.0264,-0.4044 0.5322,-0.8986 -0.8758,-0.8758 -4.0659,-1.4536 -12.2125,-2.2119 -5.1977,-0.4839 -10.8275,-2.9165 -12.2258,-5.2828 l -1.1076,-1.8744 -8.3333,-0.8457 -8.3333,-0.8457 v 1.271 c 0,0.6991 -0.8394,0.949 -1.8652,0.5553 -1.0258,-0.3936 -2.2612,-0.075 -2.7453,0.7085 -0.4842,0.7834 -0.3725,1.4243 0.248,1.4243 1.5559,0 1.8414,5.5513 0.3763,7.3166 -1.3538,1.6312 -0.1695,3.8522 2.3195,4.35 0.9167,0.1834 1.6667,-0.8666 1.6667,-2.3333 0,-1.4667 0.807,-2.6667 1.7933,-2.6667 2.0963,0 7.1981,5.2299 5.4133,5.5493 -1.2365,0.2212 -6.119,0.5793 -13.2066,0.9686 l -4,0.2198 3.6666,2.2733 c 2.0167,1.2503 3.6667,3.0532 3.6667,4.0064 0,2.4487 -3.6877,3.5684 -5.848,1.7755 -0.9977,-0.8281 -2.744,-1.1487 -3.8806,-0.7125 -1.1366,0.4361 -5.7337,-0.1465 -10.2158,-1.2948 -4.482,-1.1482 -8.5781,-1.9833 -9.1024,-1.8556 -1.8136,0.4416 -10.9532,-4.1325 -10.9532,-5.4817 0,-0.7449 -1.1411,-1.9651 -2.5358,-2.7116 l -2.5358,-1.3571 0.731,2.7954 0.731,2.7953 -3.1952,-0.9841 c -4.4279,-1.3638 -4.8734,-2.0764 -2.3258,-3.72 l 2.2028,-1.4211 -2.8695,-2.2238 c -4.423,-3.4277 -8.8964,-5.5378 -12.7204,-6.0001 -1.9153,-0.2315 -6.0179,-0.8431 -9.1169,-1.359 l -5.6345,-0.938 -1.3325,3.5046 -1.3324,3.5046 h -2.6997 c -1.4848,0 -2.7634,0.75 -2.8414,1.6666 -0.078,0.9167 -0.2279,2.8141 -0.3333,4.2164 -0.1054,1.4024 -1.0251,2.8302 -2.0439,3.173 l -1.8522,0.6233 1.1082,-1.8397 1.1082,-1.8396 -2.5119,2 c -1.3815,1.1 -2.0869,1.2914 -1.5675,0.4254 0.5194,-0.866 0.4031,-1.909 -0.2583,-2.3178 -0.6614,-0.4087 -1.4909,0.7647 -1.8432,2.6078 l -0.6406,3.3509 2.6551,-0.8427 2.6551,-0.8427 -0.9123,1.4762 c -1.172,1.8963 0.011,1.872 3.666,-0.075 l 2.9124,-1.5516 -1.83,2.2182 -1.8299,2.2183 2.4966,0.2101 c 1.3731,0.1155 3.2466,0.1822 4.1633,0.1481 0.9166,-0.034 1.6666,0.4715 1.6666,1.1233 0,0.6519 0.6,1.1852 1.3334,1.1852 0.7333,0 1.3333,-1.2 1.3333,-2.6667 v -2.6666 h 3.3333 3.3334 l -0.1053,2.3333 -0.1053,2.3333 -0.6725,-1.6666 c -0.3699,-0.9167 -1.2867,-1.6667 -2.0374,-1.6667 -0.7507,0 -1.0344,0.8612 -0.6304,1.9139 0.4039,1.0526 0.018,2.2052 -0.8574,2.5614 -0.8754,0.3561 0.3083,0.6949 2.6305,0.7528 2.3222,0.058 4.5722,0.8552 5,1.7719 l 0.7778,1.6667 0.7777,-1.6667 c 0.4278,-0.9167 1.3632,-1.6667 2.0787,-1.6667 0.7155,0 0.8693,0.75 0.3418,1.6667 -0.5275,0.9167 -0.4404,1.1941 0.1937,0.6165 0.634,-0.5775 1.1802,-2.6058 1.2137,-4.5072 l 0.061,-3.4572 2.8698,-1.0682 2.8698,-1.0683 2.0569,1.5755 c 1.1314,0.8666 2.2399,2.4621 2.4636,3.5456 0.2236,1.0835 2.2066,2.5835 4.4066,3.3333 2.2,0.7498 4,2.2633 4,3.3633 v 2 l -2.6667,-0.1834 c -1.4666,-0.1009 -4.7666,-0.5826 -7.3333,-1.0706 l -4.6667,-0.8871 4.4886,2.0715 4.4886,2.0715 -0.6746,2.5796 -0.6746,2.5797 1.8527,0.7109 c 1.019,0.391 2.7603,0.3626 3.8696,-0.063 1.1094,-0.4257 2.7706,-0.1486 3.6916,0.6158 1.5826,1.3134 13.3576,3.6454 23.6248,4.6788 2.5667,0.2583 5.4378,0.5657 6.3802,0.6831 l 1.7136,0.2133 z m -340.6159,167.6557 c -9.4136,-20.1445 -12.8957,-32.1329 -9.7069,-33.4196 l 1.6667,-0.6725 -2.2435,-0.1052 c -1.2339,-0.058 -2.5308,-1.1553 -2.8821,-2.4386 -0.9891,-3.6142 -3.3275,-18.9046 -4.0627,-26.5655 l -0.6621,-6.8988 1.8065,-1.4993 1.8065,-1.4993 0.7605,1.2305 c 0.4182,0.6768 1.0937,5.6559 1.5009,11.0648 0.4073,5.4088 1.408,13.1342 2.2238,17.1676 2.3657,11.6959 14.0207,44.4104 17.6862,49.6436 1.1363,1.6224 2.066,3.8309 2.066,4.9079 v 1.9581 l -2.0033,-2.5881 -2.0032,-2.5882 0.8125,2.3333 c 2.3787,6.8303 -1.7402,0.7238 -6.7658,-10.0307 z m 380.6265,-99.6359 3.3333,-1.0675 -3.3333,-0.2804 -3.3334,-0.2803 7.3334,-1.8486 c 4.0333,-1.0167 12.7333,-3.054 19.3333,-4.5273 14.4125,-3.2173 26.9687,-7.1895 36,-11.3889 3.6667,-1.7049 12.4167,-5.7512 19.4444,-8.9919 l 12.7778,-5.8921 v 1.8726 c 0,3.6267 -30.7333,18.8502 -34.8588,17.2671 -0.9952,-0.3819 -2.1018,0.068 -2.4592,0.9989 -0.3573,0.9313 -4.157,2.7431 -8.4436,4.0262 -4.2867,1.2831 -11.3939,3.5088 -15.7939,4.946 -8.9019,2.9076 -26.5493,6.5712 -30.6667,6.3664 l -2.6667,-0.1327 z m 214.8035,-386.99986 c -0.6218,-1.65 -1.5549,-5.1 -2.0737,-7.6667 -0.5188,-2.5668 -2.1555,-8.8668 -3.637,-14.0001 -1.4815,-5.1333 -3.3461,-11.7333 -4.1436,-14.6667 -4.0854,-15.0281 -21.0066,-52.2813 -30.2814,-66.6666 -2.8368,-4.4 -5.5626,-9.65 -6.0574,-11.6667 l -0.8995,-3.6667 h 1.5248 1.5247 l -1.4471,-2.704 c -0.7959,-1.4872 -2.1097,-2.2945 -2.9196,-1.794 l -1.4724,0.9101 0.9572,-1.5488 c 0.5357,-0.8669 0.039,-1.9009 -1.1274,-2.3487 -1.1465,-0.4399 -2.0845,-1.6999 -2.0845,-2.7999 v -2 l -2.0078,0.7705 -2.0078,0.7705 -3.6588,-5.4803 c -2.0124,-3.0141 -4.4042,-6.8186 -5.3152,-8.4544 -2.3843,-4.2813 -27.4152,-28.0199 -34.0559,-32.2977 -5.6083,-3.6127 -16.0058,-11.4983 -19.4189,-14.7275 -0.9907,-0.9374 -3.6915,-2.5158 -6.0018,-3.5076 -6.7993,-2.919 -15.4146,-9.8606 -16.2698,-13.1092 -0.7512,-2.854 -9.8524,-10.3456 -12.5682,-10.3456 -0.6977,0 -1.8989,-1.1777 -2.6692,-2.617 l -1.4006,-2.617 -1.9905,0.7638 c -1.0947,0.4201 -3.9356,-0.1471 -6.3129,-1.2603 -2.3774,-1.1132 -9.7226,-3.6285 -16.3226,-5.5896 -16.3939,-4.871 -36.5937,-12.5453 -33.3333,-12.664 l 2.6667,-0.097 -2.4922,-1.4479 -2.4921,-1.4479 -0.989,1.6002 -0.989,1.6003 -0.7621,-1.9861 c -0.4192,-1.0923 -2.5958,-2.3888 -4.8369,-2.881 -3.9716,-0.8723 -6.0436,-2.686 -6.085,-5.3262 -0.031,-1.9526 -17.3235,-4.4066 -28.5793,-4.0556 -5.4427,0.1697 -11.8967,-0.1427 -14.3422,-0.6943 -2.4456,-0.5515 -4.7787,-0.4653 -5.1847,0.1917 -0.406,0.657 -2.0528,1.1249 -3.6596,1.0399 l -2.9213,-0.1547 2.3334,-0.6097 c 3.7932,-0.9913 2.6627,-3.0809 -1.6667,-3.0809 -2.2,0 -4,0.6354 -4,1.412 0,0.7766 0.6,1.0412 1.3333,0.588 0.7334,-0.4533 1.3334,-0.1447 1.3334,0.6857 0,0.8304 -1.05,1.2802 -2.3334,0.9995 -1.2833,-0.2807 -2.1833,-1.2247 -2,-2.0978 0.1834,-0.8731 -0.1166,-1.4677 -0.6666,-1.3213 -0.55,0.1464 -5.3185,-0.1868 -10.5965,-0.7405 l -9.5965,-1.0066 0.7391,-1.9262 0.7392,-1.9262 -4.476,0.012 c -2.4618,0.01 -7.776,0.4289 -11.8093,0.939 l -7.3334,0.9274 4,0.9877 4,0.9877 -6.7296,-0.6813 c -12.2182,-1.2369 -51.2825,7.1392 -72.018,15.4421 -5.5974,2.2414 -11.7691,3.9564 -13.7148,3.8112 l -3.5376,-0.264 -9.2491,5.586 c -5.0871,3.0723 -10.2412,5.586 -11.4537,5.586 -1.2124,0 -5.4503,1.7891 -9.4175,3.9758 -11.3993,6.2834 -18.5177,4.4313 -8.8754,-2.3092 2.3603,-1.65 3.55,-3 2.6436,-3 -3.7443,0 -1.2181,-3.6908 5.0196,-7.3338 l 6.6675,-3.894 -0.7079,-2.2301 -0.7078,-2.2302 4.5783,-0.8589 c 2.5181,-0.4723 4.9174,-1.7425 5.3318,-2.8226 0.4145,-1.08 2.1524,-1.9637 3.8621,-1.9637 1.7097,0 3.6785,-0.5661 4.3752,-1.258 0.6967,-0.692 6.6667,-3.1515 13.2667,-5.4657 6.6,-2.3141 12.9,-4.9883 14,-5.9425 2.7027,-2.3445 11.7379,-6.0005 14.8295,-6.0005 1.3771,0 2.5038,-0.6354 2.5038,-1.412 0,-0.7766 0.6263,-1.025 1.3917,-0.5519 0.7655,0.4731 2.1776,0.208 3.1381,-0.5892 0.9605,-0.7971 3.1842,-1.3517 4.9416,-1.2323 1.7574,0.1193 8.2953,-0.1326 14.5286,-0.5598 6.2333,-0.4272 8.9333,-0.3579 6,0.1541 l -5.3333,0.931 4.9813,1.0203 c 2.7397,0.5612 6.0397,0.4647 7.3333,-0.2143 1.2936,-0.6791 5.5398,-1.1231 9.4359,-0.9867 3.8962,0.1364 7.3816,-0.2336 7.7454,-0.8223 0.3638,-0.5886 2.4342,-1.0702 4.6008,-1.0702 2.1667,0 5.0407,-0.6878 6.3868,-1.5284 l 2.4473,-1.5284 3.8679,1.0737 c 2.1274,0.5905 5.0679,1.0172 6.5346,0.9482 l 2.6667,-0.1255 -2.3497,0.6811 c -5.0991,1.4781 -0.4694,2.9532 7.3795,2.3512 10.6072,-0.8135 25.2493,0.95 25.9724,3.1281 0.3043,0.9167 -0.3967,1.6667 -1.5578,1.6667 -3.2151,0 -2.5172,2.5331 0.8889,3.2266 1.65,0.3359 12.1856,0.9035 23.4125,1.2613 l 20.4126,0.6506 0.7421,-1.934 0.7422,-1.934 4.8453,0.8014 c 2.6649,0.4408 7.5453,1.6093 10.8453,2.5968 9.3078,2.7853 25.5708,7.1408 30,8.0345 2.2,0.444 9.2551,2.8996 15.6779,5.457 6.4229,2.5574 12.3656,4.2249 13.206,3.7055 l 1.5281,-0.9444 -0.9264,1.4989 -0.9264,1.499 12.387,6.191 c 6.8129,3.4051 20.1871,11.3414 29.7205,17.6363 l 17.3333,11.4453 10.1648,10.0739 c 5.5906,5.5407 9.8764,9.3225 9.524,8.4041 -2.4649,-6.4233 19.5495,13.0635 32.0047,28.3301 l 5.439,6.6667 -11.1216,-10.6667 -11.1215,-10.6666 4.087,5.3333 c 5.7124,7.4546 18.7581,19.6548 20.1181,18.8143 2.4377,-1.5066 29.5722,32.226 29.5722,36.7631 0,0.8794 -0.9015,0.4343 -2.0033,-0.9892 l -2.0033,-2.5882 0.8784,2.6667 0.8783,2.6666 -2.8751,-3.5436 c -1.5813,-1.949 -2.856,-4.049 -2.8326,-4.6667 0.023,-0.6176 0.9233,0.042 2,1.4652 1.0766,1.4235 1.9576,1.9469 1.9576,1.1632 0,-0.7837 -0.7702,-2.064 -1.7114,-2.8452 l -1.7114,-1.4203 -1.8454,1.1405 -1.8453,1.1405 5.7429,9.7832 c 3.1587,5.3808 6.8302,11.3697 8.1589,13.3086 1.3288,1.939 2.6261,4.939 2.8829,6.6667 0.2568,1.7277 1.7284,5.9377 3.2702,9.3556 1.5418,3.4178 3.1857,7.6178 3.6532,9.3333 l 0.8499,3.119 -2.0083,-3.3333 -2.0084,-3.3333 -0.052,2 c -0.029,1.1 -1.2411,0.05 -2.6943,-2.3334 -3.3275,-5.4576 -4.164,-5.5033 -2.6268,-0.1435 0.6609,2.3044 0.8836,4.7044 0.4949,5.3334 -1.5053,2.4356 -2.9354,0.908 -4.5506,-4.8608 l -1.6811,-6.0044 -2.9739,3.461 -2.9739,3.4609 -2.9603,-4.7899 c -4.1988,-6.7939 -4.4392,-5.9426 -0.7058,2.4994 1.7731,4.0092 3.4436,9.2592 3.7123,11.6667 0.2687,2.4075 1.485,6.2975 2.7029,8.6444 1.2179,2.3469 2.2144,5.2757 2.2144,6.5084 0,1.2327 1.8245,7.5552 4.0545,14.0499 4.4034,12.8248 9.2039,32.9822 9.25,38.8413 0.035,4.4254 -2.2671,4.8257 -3.8343,0.6667 z"
       id="path408" /></g></svg>
